<svg xmlns="http://www.w3.org/2000/svg" xmlns:xlink="http://www.w3.org/1999/xlink" width="500" zoomAndPan="magnify" viewBox="0 0 375 374.999991" height="500" preserveAspectRatio="xMidYMid meet" version="1.0"><defs><clipPath id="1ad0927cfb"><path d="M 160 210 L 186.304688 210 L 186.304688 250.917969 L 160 250.917969 Z M 160 210 " clip-rule="nonzero"/></clipPath></defs><path fill="#ffffff" d="M 86.070312 198.167969 C 85.433594 198.167969 85.125 197.855469 85.125 197.21875 L 85.125 160.292969 C 85.125 159.660156 85.433594 159.34375 86.070312 159.34375 L 91.753906 159.34375 C 92.234375 159.34375 92.609375 159.554688 92.878906 159.96875 L 106.691406 183.019531 C 106.769531 183.167969 106.851562 183.230469 106.941406 183.191406 C 107.039062 183.160156 107.089844 183.066406 107.089844 182.917969 L 107.089844 160.292969 C 107.089844 159.660156 107.402344 159.34375 108.035156 159.34375 L 113.820312 159.34375 C 114.449219 159.34375 114.769531 159.660156 114.769531 160.292969 L 114.769531 197.21875 C 114.769531 197.855469 114.449219 198.167969 113.820312 198.167969 L 108.1875 198.167969 C 107.75 198.167969 107.386719 197.941406 107.089844 197.492188 L 93.203125 174.21875 C 93.132812 174.066406 93.050781 174.011719 92.953125 174.042969 C 92.863281 174.082031 92.828125 174.167969 92.828125 174.316406 L 92.878906 197.21875 C 92.878906 197.855469 92.558594 198.167969 91.929688 198.167969 Z M 86.070312 198.167969 " fill-opacity="1" fill-rule="nonzero"/><path fill="#ffffff" d="M 129.574219 198.617188 C 126.445312 198.617188 123.769531 197.8125 121.546875 196.191406 C 119.332031 194.5625 117.832031 192.335938 117.035156 189.519531 C 116.515625 187.785156 116.261719 185.90625 116.261719 183.867188 C 116.261719 181.605469 116.535156 179.644531 117.082031 177.992188 C 117.929688 175.261719 119.453125 173.117188 121.644531 171.566406 C 123.839844 170.003906 126.496094 169.21875 129.625 169.21875 C 132.648438 169.21875 135.242188 170.003906 137.402344 171.566406 C 139.558594 173.117188 141.070312 175.238281 141.917969 177.917969 C 142.464844 179.617188 142.738281 181.5625 142.738281 183.742188 C 142.738281 185.679688 142.496094 187.542969 142.015625 189.34375 C 141.167969 192.230469 139.648438 194.492188 137.453125 196.144531 C 135.257812 197.792969 132.628906 198.617188 129.574219 198.617188 Z M 129.574219 191.894531 C 130.753906 191.894531 131.769531 191.53125 132.617188 190.792969 C 133.464844 190.0625 134.070312 189.042969 134.4375 187.742188 C 134.734375 186.742188 134.886719 185.457031 134.886719 183.867188 C 134.886719 182.316406 134.734375 181.003906 134.4375 179.917969 C 134.070312 178.667969 133.464844 177.691406 132.617188 176.992188 C 131.769531 176.292969 130.722656 175.941406 129.476562 175.941406 C 128.242188 175.941406 127.207031 176.292969 126.359375 176.992188 C 125.511719 177.691406 124.898438 178.667969 124.539062 179.917969 C 124.238281 181.003906 124.089844 182.316406 124.089844 183.867188 C 124.089844 185.386719 124.238281 186.679688 124.539062 187.742188 C 124.898438 189.042969 125.515625 190.0625 126.382812 190.792969 C 127.261719 191.53125 128.328125 191.894531 129.574219 191.894531 Z M 129.574219 191.894531 " fill-opacity="1" fill-rule="nonzero"/><path fill="#ffffff" d="M 151.835938 198.167969 C 151.320312 198.167969 150.96875 197.910156 150.789062 197.394531 L 142.214844 170.71875 C 142.175781 170.65625 142.164062 170.542969 142.164062 170.394531 C 142.164062 170.160156 142.238281 169.988281 142.386719 169.867188 C 142.535156 169.738281 142.742188 169.667969 143.011719 169.667969 L 149.519531 169.667969 C 150.03125 169.667969 150.378906 169.941406 150.566406 170.492188 L 155.003906 187.144531 C 155.035156 187.28125 155.101562 187.34375 155.203125 187.34375 C 155.316406 187.34375 155.402344 187.28125 155.453125 187.144531 L 159.867188 170.492188 C 160.046875 169.941406 160.394531 169.667969 160.914062 169.667969 L 167.445312 169.71875 C 167.773438 169.71875 168.019531 169.832031 168.167969 170.042969 C 168.316406 170.242188 168.332031 170.488281 168.21875 170.769531 L 159.691406 197.394531 C 159.503906 197.910156 159.140625 198.167969 158.59375 198.167969 Z M 151.835938 198.167969 " fill-opacity="1" fill-rule="nonzero"/><path fill="#ffffff" d="M 182.578125 169.269531 C 183.757812 169.269531 184.734375 169.492188 185.519531 169.941406 C 185.949219 170.160156 186.117188 170.554688 186.019531 171.117188 L 184.972656 176.941406 C 184.921875 177.261719 184.808594 177.460938 184.648438 177.542969 C 184.480469 177.613281 184.210938 177.613281 183.851562 177.542969 C 183.265625 177.394531 182.734375 177.316406 182.253906 177.316406 C 181.988281 177.316406 181.5625 177.355469 180.984375 177.417969 C 179.648438 177.535156 178.519531 178.03125 177.59375 178.894531 C 176.675781 179.761719 176.222656 180.917969 176.222656 182.367188 L 176.222656 197.21875 C 176.222656 197.855469 175.902344 198.167969 175.273438 198.167969 L 169.363281 198.167969 C 168.726562 198.167969 168.417969 197.855469 168.417969 197.21875 L 168.417969 170.617188 C 168.417969 169.988281 168.726562 169.667969 169.363281 169.667969 L 175.273438 169.667969 C 175.902344 169.667969 176.222656 169.988281 176.222656 170.617188 L 176.222656 172.316406 C 176.222656 172.46875 176.25 172.566406 176.320312 172.617188 C 176.402344 172.65625 176.5 172.613281 176.621094 172.492188 C 178.078125 170.34375 180.066406 169.269531 182.578125 169.269531 Z M 182.578125 169.269531 " fill-opacity="1" fill-rule="nonzero"/><path fill="#ffffff" d="M 202.152344 170.617188 C 202.152344 169.988281 202.457031 169.667969 203.074219 169.667969 L 209.011719 169.667969 C 209.621094 169.667969 209.933594 169.988281 209.933594 170.617188 L 209.933594 197.21875 C 209.933594 197.855469 209.621094 198.167969 209.011719 198.167969 L 203.074219 198.167969 C 202.457031 198.167969 202.152344 197.855469 202.152344 197.21875 L 202.152344 195.71875 C 202.152344 195.585938 202.105469 195.511719 202.003906 195.492188 C 201.917969 195.460938 201.835938 195.503906 201.753906 195.617188 C 200.320312 197.585938 198.050781 198.566406 194.949219 198.566406 C 192.15625 198.566406 189.847656 197.71875 188.042969 196.019531 C 186.226562 194.304688 185.324219 191.910156 185.324219 188.84375 L 185.324219 170.617188 C 185.324219 169.988281 185.636719 169.667969 186.269531 169.667969 L 192.128906 169.667969 C 192.761719 169.667969 193.078125 169.988281 193.078125 170.617188 L 193.078125 186.917969 C 193.078125 188.386719 193.464844 189.585938 194.25 190.519531 C 195.046875 191.4375 196.152344 191.894531 197.566406 191.894531 C 198.8125 191.894531 199.839844 191.519531 200.65625 190.769531 C 201.46875 190.003906 201.964844 189.011719 202.152344 187.792969 Z M 202.152344 170.617188 " fill-opacity="1" fill-rule="nonzero"/><path fill="#ffffff" d="M 211.039062 198.167969 C 210.402344 198.167969 210.09375 197.855469 210.09375 197.21875 L 210.09375 191.742188 C 210.09375 191.292969 210.242188 190.90625 210.539062 190.566406 L 222.808594 177.09375 C 222.890625 176.992188 222.921875 176.910156 222.90625 176.84375 C 222.890625 176.761719 222.808594 176.71875 222.660156 176.71875 L 211.363281 176.71875 C 210.746094 176.71875 210.441406 176.40625 210.441406 175.769531 L 210.441406 170.617188 C 210.441406 169.988281 210.746094 169.667969 211.363281 169.667969 L 231.507812 169.667969 C 232.121094 169.667969 232.433594 169.988281 232.433594 170.617188 L 232.433594 176.042969 C 232.433594 176.492188 232.289062 176.886719 232.007812 177.21875 L 219.34375 190.691406 C 219.253906 190.792969 219.222656 190.886719 219.242188 190.96875 C 219.253906 191.035156 219.34375 191.066406 219.492188 191.066406 L 231.785156 191.066406 C 232.394531 191.066406 232.707031 191.386719 232.707031 192.019531 L 232.707031 197.21875 C 232.707031 197.855469 232.394531 198.167969 231.785156 198.167969 Z M 211.039062 198.167969 " fill-opacity="1" fill-rule="nonzero"/><path fill="#ffffff" d="M 142.167969 201.671875 C 142.167969 201.042969 142.480469 200.722656 143.113281 200.722656 L 149.023438 200.722656 C 149.652344 200.722656 149.972656 201.042969 149.972656 201.671875 L 149.972656 238.597656 C 149.972656 239.234375 149.652344 239.546875 149.023438 239.546875 L 143.113281 239.546875 C 142.480469 239.546875 142.167969 239.234375 142.167969 238.597656 L 142.167969 237.097656 C 142.167969 236.964844 142.117188 236.890625 142.019531 236.871094 C 141.929688 236.839844 141.847656 236.886719 141.769531 236.996094 C 140.253906 238.996094 138.160156 239.996094 135.484375 239.996094 C 132.972656 239.996094 130.75 239.246094 128.804688 237.746094 C 126.871094 236.246094 125.539062 234.285156 124.789062 231.847656 C 124.171875 230.066406 123.867188 227.847656 123.867188 225.199219 C 123.867188 222.449219 124.214844 220.160156 124.914062 218.324219 C 125.722656 215.960938 127.0625 214.074219 128.929688 212.671875 C 130.785156 211.261719 132.972656 210.546875 135.484375 210.546875 C 138.210938 210.546875 140.304688 211.460938 141.769531 213.273438 C 141.847656 213.371094 141.929688 213.410156 142.019531 213.371094 C 142.117188 213.339844 142.167969 213.246094 142.167969 213.097656 Z M 140.996094 230.796875 C 141.742188 229.417969 142.117188 227.585938 142.117188 225.296875 C 142.117188 222.867188 141.726562 220.964844 140.945312 219.597656 C 140.03125 218.148438 138.800781 217.421875 137.253906 217.421875 C 135.542969 217.421875 134.246094 218.121094 133.367188 219.523438 C 132.480469 221.011719 132.042969 222.949219 132.042969 225.347656 C 132.042969 227.535156 132.429688 229.347656 133.214844 230.796875 C 134.09375 232.386719 135.441406 233.171875 137.253906 233.171875 C 138.863281 233.171875 140.109375 232.386719 140.996094 230.796875 Z M 140.996094 230.796875 " fill-opacity="1" fill-rule="nonzero"/><path fill="#ffffff" d="M 152.539062 239.546875 C 151.921875 239.546875 151.617188 239.234375 151.617188 238.597656 L 151.617188 211.996094 C 151.617188 211.367188 151.921875 211.046875 152.539062 211.046875 L 158.472656 211.046875 C 159.082031 211.046875 159.394531 211.367188 159.394531 211.996094 L 159.394531 238.597656 C 159.394531 239.234375 159.082031 239.546875 158.472656 239.546875 Z M 155.304688 207.621094 C 154.238281 207.621094 153.375 207.292969 152.714844 206.621094 C 152.046875 205.960938 151.714844 205.089844 151.714844 204.023438 C 151.714844 202.941406 152.046875 202.066406 152.714844 201.398438 C 153.375 200.734375 154.238281 200.398438 155.304688 200.398438 C 156.367188 200.398438 157.226562 200.734375 157.875 201.398438 C 158.523438 202.066406 158.847656 202.941406 158.847656 204.023438 C 158.847656 205.089844 158.523438 205.960938 157.875 206.621094 C 157.226562 207.292969 156.367188 207.621094 155.304688 207.621094 Z M 155.304688 207.621094 " fill-opacity="1" fill-rule="nonzero"/><g clip-path="url(#1ad0927cfb)"><path fill="#ffffff" d="M 178.425781 211.996094 C 178.425781 211.367188 178.730469 211.046875 179.347656 211.046875 L 185.28125 211.046875 C 185.914062 211.046875 186.230469 211.367188 186.230469 211.996094 L 186.230469 236.996094 C 186.230469 241.847656 184.839844 245.304688 182.066406 247.371094 C 179.304688 249.433594 175.746094 250.472656 171.394531 250.472656 C 170.179688 250.472656 168.800781 250.378906 167.257812 250.199219 C 166.6875 250.160156 166.410156 249.828125 166.410156 249.199219 L 166.632812 244.046875 C 166.632812 243.746094 166.734375 243.511719 166.933594 243.347656 C 167.144531 243.179688 167.394531 243.128906 167.679688 243.199219 C 169.058594 243.378906 170.1875 243.472656 171.070312 243.472656 C 173.425781 243.472656 175.242188 242.953125 176.507812 241.921875 C 177.785156 240.886719 178.425781 239.234375 178.425781 236.949219 C 178.425781 236.835938 178.382812 236.765625 178.300781 236.746094 C 178.234375 236.734375 178.140625 236.785156 178.027344 236.898438 C 176.660156 238.367188 174.636719 239.097656 171.945312 239.097656 C 169.550781 239.097656 167.34375 238.523438 165.335938 237.371094 C 163.324219 236.210938 161.894531 234.324219 161.046875 231.722656 C 160.5 230.023438 160.226562 227.824219 160.226562 225.121094 C 160.226562 222.242188 160.554688 219.898438 161.222656 218.097656 C 162 215.835938 163.304688 214.015625 165.136719 212.648438 C 166.980469 211.285156 169.125 210.597656 171.570312 210.597656 C 174.324219 210.597656 176.480469 211.433594 178.027344 213.097656 C 178.140625 213.214844 178.234375 213.261719 178.300781 213.222656 C 178.382812 213.171875 178.425781 213.074219 178.425781 212.921875 Z M 177.976562 229.621094 C 178.277344 228.511719 178.425781 226.992188 178.425781 225.074219 C 178.425781 223.921875 178.382812 223.042969 178.300781 222.421875 C 178.234375 221.792969 178.109375 221.199219 177.925781 220.648438 C 177.589844 219.648438 177.035156 218.847656 176.257812 218.246094 C 175.488281 217.636719 174.535156 217.324219 173.390625 217.324219 C 172.273438 217.324219 171.328125 217.636719 170.546875 218.246094 C 169.78125 218.847656 169.214844 219.648438 168.851562 220.648438 C 168.335938 221.746094 168.078125 223.242188 168.078125 225.121094 C 168.078125 227.210938 168.304688 228.691406 168.753906 229.574219 C 169.082031 230.574219 169.65625 231.386719 170.472656 231.996094 C 171.300781 232.597656 172.292969 232.898438 173.441406 232.898438 C 174.617188 232.898438 175.589844 232.597656 176.355469 231.996094 C 177.136719 231.386719 177.679688 230.589844 177.976562 229.621094 Z M 177.976562 229.621094 " fill-opacity="1" fill-rule="nonzero"/></g><path fill="#ffffff" d="M 188.519531 239.546875 C 187.902344 239.546875 187.597656 239.234375 187.597656 238.597656 L 187.597656 211.996094 C 187.597656 211.367188 187.902344 211.046875 188.519531 211.046875 L 194.453125 211.046875 C 195.0625 211.046875 195.375 211.367188 195.375 211.996094 L 195.375 238.597656 C 195.375 239.234375 195.0625 239.546875 194.453125 239.546875 Z M 191.285156 207.621094 C 190.21875 207.621094 189.355469 207.292969 188.691406 206.621094 C 188.027344 205.960938 187.695312 205.089844 187.695312 204.023438 C 187.695312 202.941406 188.027344 202.066406 188.691406 201.398438 C 189.355469 200.734375 190.21875 200.398438 191.285156 200.398438 C 192.34375 200.398438 193.207031 200.734375 193.855469 201.398438 C 194.503906 202.066406 194.828125 202.941406 194.828125 204.023438 C 194.828125 205.089844 194.503906 205.960938 193.855469 206.621094 C 193.207031 207.292969 192.34375 207.621094 191.285156 207.621094 Z M 191.285156 207.621094 " fill-opacity="1" fill-rule="nonzero"/><path fill="#ffffff" d="M 213.359375 216.371094 C 213.359375 217.011719 213.039062 217.324219 212.410156 217.324219 L 207.425781 217.324219 C 207.207031 217.324219 207.101562 217.433594 207.101562 217.648438 L 207.101562 229.121094 C 207.101562 230.339844 207.351562 231.242188 207.847656 231.824219 C 208.347656 232.390625 209.144531 232.671875 210.242188 232.671875 L 211.8125 232.671875 C 212.421875 232.671875 212.734375 232.992188 212.734375 233.621094 L 212.734375 238.371094 C 212.734375 238.972656 212.421875 239.308594 211.8125 239.371094 C 210.398438 239.460938 209.382812 239.496094 208.769531 239.496094 C 205.691406 239.496094 203.398438 238.984375 201.890625 237.949219 C 200.394531 236.917969 199.621094 234.992188 199.570312 232.171875 L 199.570312 217.648438 C 199.570312 217.433594 199.457031 217.324219 199.246094 217.324219 L 196.429688 217.324219 C 195.792969 217.324219 195.480469 217.011719 195.480469 216.371094 L 195.480469 211.996094 C 195.480469 211.367188 195.792969 211.046875 196.429688 211.046875 L 199.246094 211.046875 C 199.457031 211.046875 199.570312 210.941406 199.570312 210.722656 L 199.570312 204.449219 C 199.570312 203.816406 199.882812 203.496094 200.519531 203.496094 L 206.152344 203.496094 C 206.78125 203.496094 207.101562 203.816406 207.101562 204.449219 L 207.101562 210.722656 C 207.101562 210.941406 207.207031 211.046875 207.425781 211.046875 L 212.410156 211.046875 C 213.039062 211.046875 213.359375 211.367188 213.359375 211.996094 Z M 213.359375 216.371094 " fill-opacity="1" fill-rule="nonzero"/><path fill="#ffffff" d="M 225.390625 210.597656 C 227.78125 210.597656 229.914062 211.015625 231.796875 211.847656 C 233.691406 212.683594 235.164062 213.824219 236.210938 215.273438 C 237.257812 216.710938 237.78125 218.308594 237.78125 220.074219 L 237.78125 238.597656 C 237.78125 239.234375 237.464844 239.546875 236.832031 239.546875 L 230.925781 239.546875 C 230.289062 239.546875 229.976562 239.234375 229.976562 238.597656 L 229.976562 237.273438 C 229.976562 237.121094 229.933594 237.042969 229.851562 237.023438 C 229.785156 237.011719 229.703125 237.058594 229.601562 237.171875 C 227.90625 239.058594 225.375 239.996094 222.023438 239.996094 C 219.179688 239.996094 216.894531 239.296875 215.167969 237.898438 C 213.433594 236.484375 212.574219 234.410156 212.574219 231.671875 C 212.574219 228.824219 213.558594 226.617188 215.539062 225.046875 C 217.535156 223.484375 220.378906 222.699219 224.066406 222.699219 L 229.652344 222.699219 C 229.863281 222.699219 229.976562 222.585938 229.976562 222.347656 L 229.976562 221.199219 C 229.976562 219.984375 229.589844 219.035156 228.828125 218.347656 C 228.082031 217.667969 226.992188 217.324219 225.5625 217.324219 C 224.449219 217.324219 223.53125 217.511719 222.820312 217.871094 C 222.105469 218.242188 221.613281 218.761719 221.351562 219.421875 C 221.132812 219.941406 220.765625 220.183594 220.253906 220.148438 L 214.121094 219.371094 C 213.820312 219.324219 213.582031 219.242188 213.421875 219.121094 C 213.253906 218.992188 213.183594 218.816406 213.222656 218.597656 C 213.402344 217.085938 214.03125 215.714844 215.117188 214.496094 C 216.214844 213.265625 217.648438 212.308594 219.429688 211.621094 C 221.226562 210.941406 223.207031 210.597656 225.390625 210.597656 Z M 224.292969 234.171875 C 225.867188 234.171875 227.210938 233.746094 228.304688 232.898438 C 229.414062 232.046875 229.976562 230.960938 229.976562 229.621094 L 229.976562 227.671875 C 229.976562 227.460938 229.863281 227.347656 229.652344 227.347656 L 225.738281 227.347656 C 224.074219 227.347656 222.757812 227.667969 221.800781 228.296875 C 220.832031 228.917969 220.351562 229.796875 220.351562 230.949219 C 220.351562 231.949219 220.707031 232.742188 221.425781 233.324219 C 222.152344 233.890625 223.109375 234.171875 224.292969 234.171875 Z M 224.292969 234.171875 " fill-opacity="1" fill-rule="nonzero"/><path fill="#ffffff" d="M 240.191406 239.546875 C 239.574219 239.546875 239.269531 239.234375 239.269531 238.597656 L 239.269531 201.671875 C 239.269531 201.042969 239.574219 200.722656 240.191406 200.722656 L 246.125 200.722656 C 246.753906 200.722656 247.070312 201.042969 247.070312 201.671875 L 247.070312 238.597656 C 247.070312 239.234375 246.753906 239.546875 246.125 239.546875 Z M 240.191406 239.546875 " fill-opacity="1" fill-rule="nonzero"/></svg>