<svg xmlns="http://www.w3.org/2000/svg" xmlns:xlink="http://www.w3.org/1999/xlink" width="48" zoomAndPan="magnify" viewBox="0 0 36 36.000001" height="48" preserveAspectRatio="xMidYMid meet" version="1.0"><defs><clipPath id="49b6a5ef18"><path d="M 0.488281 0 L 35.511719 0 L 35.511719 35.027344 L 0.488281 35.027344 Z M 0.488281 0 " clip-rule="nonzero"/></clipPath><clipPath id="2d19e531c2"><path d="M 0.488281 2 L 35.511719 2 L 35.511719 33 L 0.488281 33 Z M 0.488281 2 " clip-rule="nonzero"/></clipPath><clipPath id="cdeb432f54"><path d="M 12 14 L 17 14 L 17 19 L 12 19 Z M 12 14 " clip-rule="nonzero"/></clipPath><clipPath id="d00305c28b"><path d="M 11.816406 11.992188 L 29.457031 28.386719 L 24.488281 33.734375 L 6.851562 17.339844 Z M 11.816406 11.992188 " clip-rule="nonzero"/></clipPath><clipPath id="172363b440"><path d="M 11.816406 11.992188 L 29.457031 28.386719 L 24.488281 33.734375 L 6.851562 17.339844 Z M 11.816406 11.992188 " clip-rule="nonzero"/></clipPath><clipPath id="91afee13ff"><path d="M 14 17 L 17 17 L 17 20 L 14 20 Z M 14 17 " clip-rule="nonzero"/></clipPath><clipPath id="01aa37b8f7"><path d="M 11.816406 11.992188 L 29.457031 28.386719 L 24.488281 33.734375 L 6.851562 17.339844 Z M 11.816406 11.992188 " clip-rule="nonzero"/></clipPath><clipPath id="57d177d1a5"><path d="M 11.816406 11.992188 L 29.457031 28.386719 L 24.488281 33.734375 L 6.851562 17.339844 Z M 11.816406 11.992188 " clip-rule="nonzero"/></clipPath><clipPath id="15fcd48a7b"><path d="M 16 18 L 19 18 L 19 22 L 16 22 Z M 16 18 " clip-rule="nonzero"/></clipPath><clipPath id="a47a293659"><path d="M 11.816406 11.992188 L 29.457031 28.386719 L 24.488281 33.734375 L 6.851562 17.339844 Z M 11.816406 11.992188 " clip-rule="nonzero"/></clipPath><clipPath id="4cb4ad3c7e"><path d="M 11.816406 11.992188 L 29.457031 28.386719 L 24.488281 33.734375 L 6.851562 17.339844 Z M 11.816406 11.992188 " clip-rule="nonzero"/></clipPath><clipPath id="970e162db8"><path d="M 17 19 L 20 19 L 20 23 L 17 23 Z M 17 19 " clip-rule="nonzero"/></clipPath><clipPath id="f1f6382f7a"><path d="M 11.816406 11.992188 L 29.457031 28.386719 L 24.488281 33.734375 L 6.851562 17.339844 Z M 11.816406 11.992188 " clip-rule="nonzero"/></clipPath><clipPath id="93670e4725"><path d="M 11.816406 11.992188 L 29.457031 28.386719 L 24.488281 33.734375 L 6.851562 17.339844 Z M 11.816406 11.992188 " clip-rule="nonzero"/></clipPath><clipPath id="0e883da75c"><path d="M 18 20 L 22 20 L 22 24 L 18 24 Z M 18 20 " clip-rule="nonzero"/></clipPath><clipPath id="c3018394a0"><path d="M 11.816406 11.992188 L 29.457031 28.386719 L 24.488281 33.734375 L 6.851562 17.339844 Z M 11.816406 11.992188 " clip-rule="nonzero"/></clipPath><clipPath id="b51fd4a66a"><path d="M 11.816406 11.992188 L 29.457031 28.386719 L 24.488281 33.734375 L 6.851562 17.339844 Z M 11.816406 11.992188 " clip-rule="nonzero"/></clipPath><clipPath id="7248cf0129"><path d="M 19 22 L 23 22 L 23 26 L 19 26 Z M 19 22 " clip-rule="nonzero"/></clipPath><clipPath id="0885c5b07a"><path d="M 11.816406 11.992188 L 29.457031 28.386719 L 24.488281 33.734375 L 6.851562 17.339844 Z M 11.816406 11.992188 " clip-rule="nonzero"/></clipPath><clipPath id="b84469f120"><path d="M 11.816406 11.992188 L 29.457031 28.386719 L 24.488281 33.734375 L 6.851562 17.339844 Z M 11.816406 11.992188 " clip-rule="nonzero"/></clipPath><clipPath id="ab1a8e428d"><path d="M 12 20 L 16 20 L 16 23 L 12 23 Z M 12 20 " clip-rule="nonzero"/></clipPath><clipPath id="df879726e6"><path d="M 11.816406 11.992188 L 29.457031 28.386719 L 24.488281 33.734375 L 6.851562 17.339844 Z M 11.816406 11.992188 " clip-rule="nonzero"/></clipPath><clipPath id="4628296662"><path d="M 11.816406 11.992188 L 29.457031 28.386719 L 24.488281 33.734375 L 6.851562 17.339844 Z M 11.816406 11.992188 " clip-rule="nonzero"/></clipPath><clipPath id="dd3428adc6"><path d="M 13 20 L 17 20 L 17 24 L 13 24 Z M 13 20 " clip-rule="nonzero"/></clipPath><clipPath id="8eb3745432"><path d="M 11.816406 11.992188 L 29.457031 28.386719 L 24.488281 33.734375 L 6.851562 17.339844 Z M 11.816406 11.992188 " clip-rule="nonzero"/></clipPath><clipPath id="306e95bf9b"><path d="M 11.816406 11.992188 L 29.457031 28.386719 L 24.488281 33.734375 L 6.851562 17.339844 Z M 11.816406 11.992188 " clip-rule="nonzero"/></clipPath><clipPath id="4a20045c7d"><path d="M 14 22 L 18 22 L 18 26 L 14 26 Z M 14 22 " clip-rule="nonzero"/></clipPath><clipPath id="00582bbf9b"><path d="M 11.816406 11.992188 L 29.457031 28.386719 L 24.488281 33.734375 L 6.851562 17.339844 Z M 11.816406 11.992188 " clip-rule="nonzero"/></clipPath><clipPath id="02b5735765"><path d="M 11.816406 11.992188 L 29.457031 28.386719 L 24.488281 33.734375 L 6.851562 17.339844 Z M 11.816406 11.992188 " clip-rule="nonzero"/></clipPath><clipPath id="c40e44b1c9"><path d="M 16.003906 21.777344 L 17.582031 23.246094 L 15.335938 25.664062 L 13.753906 24.195312 Z M 16.003906 21.777344 " clip-rule="nonzero"/></clipPath><clipPath id="988d0399d9"><path d="M 16.003906 21.777344 L 17.582031 23.246094 L 15.34375 25.65625 L 13.761719 24.1875 Z M 16.003906 21.777344 " clip-rule="nonzero"/></clipPath><clipPath id="9345d9a35e"><path d="M 16 22 L 19 22 L 19 26 L 16 26 Z M 16 22 " clip-rule="nonzero"/></clipPath><clipPath id="0443bb9b2c"><path d="M 11.816406 11.992188 L 29.457031 28.386719 L 24.488281 33.734375 L 6.851562 17.339844 Z M 11.816406 11.992188 " clip-rule="nonzero"/></clipPath><clipPath id="84b8d2978a"><path d="M 11.816406 11.992188 L 29.457031 28.386719 L 24.488281 33.734375 L 6.851562 17.339844 Z M 11.816406 11.992188 " clip-rule="nonzero"/></clipPath><clipPath id="455e1ef9d8"><path d="M 16 23 L 20 23 L 20 27 L 16 27 Z M 16 23 " clip-rule="nonzero"/></clipPath><clipPath id="b33241ac6c"><path d="M 11.816406 11.992188 L 29.457031 28.386719 L 24.488281 33.734375 L 6.851562 17.339844 Z M 11.816406 11.992188 " clip-rule="nonzero"/></clipPath><clipPath id="8685bcd105"><path d="M 11.816406 11.992188 L 29.457031 28.386719 L 24.488281 33.734375 L 6.851562 17.339844 Z M 11.816406 11.992188 " clip-rule="nonzero"/></clipPath><clipPath id="366c30edab"><path d="M 17 25 L 21 25 L 21 28 L 17 28 Z M 17 25 " clip-rule="nonzero"/></clipPath><clipPath id="2feb79e1a3"><path d="M 11.816406 11.992188 L 29.457031 28.386719 L 24.488281 33.734375 L 6.851562 17.339844 Z M 11.816406 11.992188 " clip-rule="nonzero"/></clipPath><clipPath id="c0aa10bcbd"><path d="M 11.816406 11.992188 L 29.457031 28.386719 L 24.488281 33.734375 L 6.851562 17.339844 Z M 11.816406 11.992188 " clip-rule="nonzero"/></clipPath><clipPath id="7cff9b46f7"><path d="M 19 25 L 22 25 L 22 29 L 19 29 Z M 19 25 " clip-rule="nonzero"/></clipPath><clipPath id="6a3efd83e7"><path d="M 11.816406 11.992188 L 29.457031 28.386719 L 24.488281 33.734375 L 6.851562 17.339844 Z M 11.816406 11.992188 " clip-rule="nonzero"/></clipPath><clipPath id="fab56449c5"><path d="M 11.816406 11.992188 L 29.457031 28.386719 L 24.488281 33.734375 L 6.851562 17.339844 Z M 11.816406 11.992188 " clip-rule="nonzero"/></clipPath></defs><g clip-path="url(#49b6a5ef18)"><path fill="#ffffff" d="M 0.488281 0 L 35.511719 0 L 35.511719 35.027344 L 0.488281 35.027344 Z M 0.488281 0 " fill-opacity="1" fill-rule="nonzero"/><path fill="#ffffff" d="M 0.488281 0 L 35.511719 0 L 35.511719 35.027344 L 0.488281 35.027344 Z M 0.488281 0 " fill-opacity="1" fill-rule="nonzero"/></g><g clip-path="url(#2d19e531c2)"><path fill="#3f78e0" d="M 16.167969 2.917969 L 35.511719 21.910156 L 35.511719 32.109375 L 26.484375 32.109375 L 26.484375 25.578125 L 12.433594 11.78125 L 9.515625 11.78125 L 9.515625 32.109375 L 0.488281 32.109375 L 0.488281 2.917969 Z M 26.484375 13.046875 L 26.484375 2.917969 L 35.511719 2.917969 L 35.511719 13.046875 Z M 26.484375 13.046875 " fill-opacity="1" fill-rule="nonzero"/></g><g clip-path="url(#cdeb432f54)"><g clip-path="url(#d00305c28b)"><g clip-path="url(#172363b440)"><path fill="#3f78e0" d="M 12.351562 17.160156 C 12.316406 17.125 12.3125 17.089844 12.347656 17.054688 L 14.34375 14.910156 C 14.375 14.871094 14.410156 14.871094 14.449219 14.90625 L 14.78125 15.210938 C 14.808594 15.238281 14.820312 15.269531 14.8125 15.308594 L 14.371094 17.398438 C 14.367188 17.410156 14.371094 17.417969 14.375 17.421875 C 14.382812 17.425781 14.390625 17.421875 14.402344 17.414062 L 15.621094 16.097656 C 15.65625 16.0625 15.691406 16.058594 15.730469 16.09375 L 16.066406 16.40625 C 16.101562 16.441406 16.105469 16.476562 16.070312 16.515625 L 14.074219 18.660156 C 14.042969 18.695312 14.003906 18.699219 13.96875 18.664062 L 13.640625 18.359375 C 13.617188 18.335938 13.605469 18.300781 13.613281 18.261719 L 14.0625 16.15625 C 14.066406 16.144531 14.0625 16.136719 14.054688 16.132812 C 14.050781 16.128906 14.042969 16.132812 14.035156 16.140625 L 12.800781 17.472656 C 12.765625 17.511719 12.730469 17.511719 12.695312 17.476562 Z M 12.351562 17.160156 " fill-opacity="1" fill-rule="nonzero"/></g></g></g><g clip-path="url(#91afee13ff)"><g clip-path="url(#01aa37b8f7)"><g clip-path="url(#57d177d1a5)"><path fill="#3f78e0" d="M 14.863281 19.542969 C 14.679688 19.375 14.566406 19.183594 14.527344 18.96875 C 14.484375 18.753906 14.519531 18.542969 14.625 18.335938 C 14.6875 18.207031 14.773438 18.082031 14.882812 17.964844 C 15.003906 17.832031 15.128906 17.734375 15.25 17.667969 C 15.445312 17.554688 15.648438 17.511719 15.863281 17.542969 C 16.074219 17.570312 16.269531 17.667969 16.453125 17.835938 C 16.628906 18 16.738281 18.1875 16.78125 18.394531 C 16.820312 18.601562 16.796875 18.808594 16.699219 19.007812 C 16.640625 19.136719 16.550781 19.265625 16.433594 19.390625 C 16.328125 19.503906 16.214844 19.597656 16.089844 19.679688 C 15.882812 19.800781 15.671875 19.847656 15.457031 19.828125 C 15.238281 19.804688 15.039062 19.707031 14.863281 19.542969 Z M 15.226562 19.152344 C 15.292969 19.214844 15.375 19.25 15.460938 19.253906 C 15.550781 19.257812 15.640625 19.230469 15.734375 19.175781 C 15.804688 19.132812 15.882812 19.066406 15.96875 18.972656 C 16.050781 18.882812 16.113281 18.800781 16.15625 18.71875 C 16.203125 18.628906 16.21875 18.539062 16.207031 18.453125 C 16.195312 18.363281 16.152344 18.289062 16.082031 18.21875 C 16.007812 18.152344 15.929688 18.117188 15.84375 18.113281 C 15.757812 18.105469 15.667969 18.128906 15.578125 18.183594 C 15.503906 18.230469 15.421875 18.300781 15.339844 18.390625 C 15.257812 18.476562 15.195312 18.5625 15.15625 18.636719 C 15.109375 18.734375 15.089844 18.828125 15.097656 18.914062 C 15.109375 19.007812 15.152344 19.085938 15.226562 19.152344 Z M 15.226562 19.152344 " fill-opacity="1" fill-rule="nonzero"/></g></g></g><g clip-path="url(#15fcd48a7b)"><g clip-path="url(#a47a293659)"><g clip-path="url(#4cb4ad3c7e)"><path fill="#3f78e0" d="M 16.183594 20.722656 C 16.152344 20.695312 16.148438 20.660156 16.164062 20.621094 L 17.105469 18.605469 C 17.105469 18.601562 17.113281 18.59375 17.121094 18.585938 C 17.132812 18.570312 17.148438 18.566406 17.164062 18.566406 C 17.179688 18.566406 17.195312 18.574219 17.210938 18.589844 L 17.589844 18.941406 C 17.617188 18.96875 17.625 19.003906 17.605469 19.046875 L 16.964844 20.253906 C 16.957031 20.261719 16.960938 20.269531 16.964844 20.277344 C 16.972656 20.28125 16.980469 20.285156 16.992188 20.277344 L 18.148438 19.550781 C 18.1875 19.527344 18.222656 19.53125 18.253906 19.558594 L 18.628906 19.914062 C 18.648438 19.933594 18.65625 19.953125 18.65625 19.972656 C 18.652344 19.992188 18.640625 20.007812 18.617188 20.019531 L 16.683594 21.101562 C 16.644531 21.125 16.609375 21.117188 16.578125 21.089844 Z M 16.183594 20.722656 " fill-opacity="1" fill-rule="nonzero"/></g></g></g><g clip-path="url(#970e162db8)"><g clip-path="url(#f1f6382f7a)"><g clip-path="url(#93670e4725)"><path fill="#3f78e0" d="M 19.535156 20.707031 C 19.605469 20.773438 19.648438 20.839844 19.671875 20.90625 C 19.683594 20.941406 19.671875 20.976562 19.636719 21.003906 L 19.261719 21.285156 C 19.242188 21.300781 19.222656 21.304688 19.210938 21.300781 C 19.195312 21.296875 19.179688 21.28125 19.164062 21.257812 C 19.136719 21.21875 19.109375 21.183594 19.082031 21.160156 C 19.066406 21.144531 19.039062 21.125 19.003906 21.09375 C 18.917969 21.03125 18.828125 20.996094 18.726562 20.996094 C 18.625 21 18.535156 21.042969 18.457031 21.125 L 17.65625 21.988281 C 17.621094 22.027344 17.585938 22.027344 17.550781 21.992188 L 17.207031 21.671875 C 17.167969 21.636719 17.167969 21.601562 17.203125 21.566406 L 18.636719 20.019531 C 18.671875 19.984375 18.707031 19.980469 18.746094 20.015625 L 19.089844 20.335938 C 19.125 20.371094 19.128906 20.40625 19.09375 20.441406 L 19 20.542969 C 18.992188 20.550781 18.988281 20.558594 18.992188 20.5625 C 18.992188 20.570312 19 20.574219 19.015625 20.574219 C 19.214844 20.527344 19.390625 20.574219 19.535156 20.707031 Z M 19.535156 20.707031 " fill-opacity="1" fill-rule="nonzero"/></g></g></g><g clip-path="url(#0e883da75c)"><g clip-path="url(#c3018394a0)"><g clip-path="url(#b51fd4a66a)"><path fill="#3f78e0" d="M 20.605469 21.847656 C 20.636719 21.808594 20.671875 21.808594 20.710938 21.84375 L 21.054688 22.164062 C 21.089844 22.195312 21.089844 22.230469 21.058594 22.269531 L 19.621094 23.8125 C 19.585938 23.851562 19.550781 23.851562 19.515625 23.820312 L 19.171875 23.496094 C 19.132812 23.464844 19.132812 23.429688 19.167969 23.394531 L 19.25 23.304688 C 19.253906 23.296875 19.257812 23.292969 19.25 23.285156 C 19.25 23.277344 19.242188 23.277344 19.230469 23.277344 C 19.039062 23.316406 18.855469 23.25 18.675781 23.082031 C 18.511719 22.929688 18.421875 22.753906 18.410156 22.558594 C 18.398438 22.359375 18.472656 22.171875 18.640625 21.996094 L 19.625 20.9375 C 19.65625 20.898438 19.691406 20.898438 19.730469 20.933594 L 20.070312 21.25 C 20.109375 21.28125 20.109375 21.320312 20.074219 21.355469 L 19.195312 22.304688 C 19.117188 22.386719 19.074219 22.480469 19.070312 22.574219 C 19.066406 22.671875 19.105469 22.757812 19.1875 22.835938 C 19.261719 22.902344 19.339844 22.9375 19.429688 22.9375 C 19.515625 22.9375 19.601562 22.90625 19.675781 22.84375 Z M 20.605469 21.847656 " fill-opacity="1" fill-rule="nonzero"/></g></g></g><g clip-path="url(#7248cf0129)"><g clip-path="url(#0885c5b07a)"><g clip-path="url(#b84469f120)"><path fill="#3f78e0" d="M 19.632812 23.929688 C 19.597656 23.894531 19.59375 23.859375 19.628906 23.824219 L 19.925781 23.503906 C 19.949219 23.476562 19.980469 23.464844 20.015625 23.460938 L 21.457031 23.34375 C 21.46875 23.339844 21.472656 23.335938 21.476562 23.332031 C 21.480469 23.328125 21.476562 23.320312 21.46875 23.3125 L 20.8125 22.699219 C 20.777344 22.667969 20.773438 22.632812 20.808594 22.59375 L 21.085938 22.296875 C 21.121094 22.257812 21.15625 22.257812 21.191406 22.289062 L 22.367188 23.382812 C 22.402344 23.414062 22.402344 23.449219 22.367188 23.488281 L 22.074219 23.800781 C 22.050781 23.828125 22.023438 23.84375 21.988281 23.847656 L 20.523438 23.945312 C 20.511719 23.945312 20.503906 23.949219 20.5 23.957031 C 20.496094 23.960938 20.5 23.964844 20.511719 23.972656 L 21.226562 24.640625 C 21.261719 24.671875 21.261719 24.707031 21.230469 24.746094 L 20.949219 25.046875 C 20.914062 25.085938 20.878906 25.085938 20.84375 25.054688 Z M 19.632812 23.929688 " fill-opacity="1" fill-rule="nonzero"/></g></g></g><g clip-path="url(#ab1a8e428d)"><g clip-path="url(#df879726e6)"><g clip-path="url(#4628296662)"><path fill="#3f78e0" d="M 15.429688 20.402344 C 15.464844 20.367188 15.5 20.363281 15.539062 20.398438 L 15.882812 20.71875 C 15.917969 20.753906 15.921875 20.789062 15.886719 20.824219 L 13.890625 22.972656 C 13.855469 23.007812 13.820312 23.007812 13.785156 22.976562 L 13.441406 22.65625 C 13.402344 22.621094 13.402344 22.585938 13.4375 22.546875 L 13.519531 22.460938 C 13.523438 22.453125 13.527344 22.445312 13.523438 22.441406 C 13.519531 22.433594 13.511719 22.433594 13.5 22.433594 C 13.304688 22.46875 13.128906 22.414062 12.972656 22.269531 C 12.824219 22.132812 12.738281 21.96875 12.703125 21.777344 C 12.671875 21.582031 12.699219 21.398438 12.789062 21.214844 C 12.847656 21.078125 12.953125 20.933594 13.09375 20.777344 C 13.242188 20.617188 13.386719 20.503906 13.527344 20.4375 C 13.703125 20.34375 13.882812 20.304688 14.066406 20.324219 C 14.25 20.34375 14.417969 20.421875 14.5625 20.558594 C 14.722656 20.703125 14.792969 20.871094 14.78125 21.054688 C 14.78125 21.066406 14.785156 21.070312 14.789062 21.074219 C 14.796875 21.078125 14.804688 21.074219 14.8125 21.066406 Z M 13.789062 22.03125 C 13.910156 21.992188 14.027344 21.90625 14.152344 21.773438 C 14.285156 21.632812 14.363281 21.5 14.390625 21.378906 C 14.417969 21.246094 14.382812 21.136719 14.292969 21.050781 C 14.195312 20.960938 14.082031 20.929688 13.953125 20.964844 C 13.824219 21.003906 13.691406 21.089844 13.5625 21.230469 C 13.445312 21.359375 13.371094 21.484375 13.335938 21.609375 C 13.300781 21.75 13.339844 21.871094 13.445312 21.96875 C 13.539062 22.054688 13.652344 22.078125 13.789062 22.03125 Z M 13.789062 22.03125 " fill-opacity="1" fill-rule="nonzero"/></g></g></g><g clip-path="url(#dd3428adc6)"><g clip-path="url(#8eb3745432)"><g clip-path="url(#306e95bf9b)"><path fill="#3f78e0" d="M 13.988281 23.164062 C 13.953125 23.132812 13.953125 23.097656 13.988281 23.058594 L 15.425781 21.515625 C 15.457031 21.476562 15.492188 21.476562 15.53125 21.507812 L 15.875 21.832031 C 15.910156 21.863281 15.910156 21.898438 15.878906 21.9375 L 14.441406 23.480469 C 14.40625 23.519531 14.371094 23.519531 14.335938 23.488281 Z M 15.875 21.460938 C 15.8125 21.402344 15.78125 21.335938 15.777344 21.261719 C 15.777344 21.1875 15.804688 21.117188 15.859375 21.054688 C 15.917969 20.992188 15.984375 20.960938 16.0625 20.957031 C 16.136719 20.957031 16.203125 20.984375 16.265625 21.039062 C 16.328125 21.097656 16.359375 21.164062 16.363281 21.238281 C 16.363281 21.3125 16.335938 21.378906 16.277344 21.441406 C 16.21875 21.503906 16.152344 21.539062 16.078125 21.542969 C 16.003906 21.546875 15.9375 21.519531 15.875 21.460938 Z M 15.875 21.460938 " fill-opacity="1" fill-rule="nonzero"/></g></g></g><g clip-path="url(#4a20045c7d)"><g clip-path="url(#00582bbf9b)"><g clip-path="url(#02b5735765)"><g clip-path="url(#c40e44b1c9)"><g clip-path="url(#988d0399d9)"><path fill="#3f78e0" d="M 16.988281 22.964844 C 17.019531 22.929688 17.054688 22.929688 17.089844 22.960938 L 17.4375 23.28125 C 17.472656 23.316406 17.476562 23.351562 17.441406 23.390625 L 16.089844 24.84375 C 15.828125 25.125 15.5625 25.25 15.289062 25.21875 C 15.015625 25.191406 14.753906 25.058594 14.5 24.820312 C 14.429688 24.757812 14.351562 24.675781 14.273438 24.582031 C 14.242188 24.546875 14.242188 24.515625 14.277344 24.476562 L 14.566406 24.191406 C 14.585938 24.171875 14.601562 24.164062 14.625 24.167969 C 14.644531 24.167969 14.664062 24.179688 14.675781 24.199219 C 14.746094 24.28125 14.804688 24.347656 14.859375 24.398438 C 14.996094 24.523438 15.128906 24.59375 15.257812 24.601562 C 15.390625 24.609375 15.515625 24.550781 15.640625 24.417969 C 15.644531 24.410156 15.644531 24.402344 15.640625 24.398438 C 15.640625 24.394531 15.632812 24.390625 15.617188 24.390625 C 15.460938 24.402344 15.300781 24.335938 15.144531 24.191406 C 15.003906 24.0625 14.90625 23.90625 14.851562 23.730469 C 14.796875 23.554688 14.816406 23.367188 14.910156 23.171875 C 14.96875 23.042969 15.070312 22.902344 15.21875 22.742188 C 15.371094 22.578125 15.519531 22.457031 15.65625 22.390625 C 15.820312 22.300781 15.996094 22.265625 16.175781 22.285156 C 16.359375 22.304688 16.519531 22.382812 16.664062 22.515625 C 16.824219 22.664062 16.902344 22.828125 16.902344 23.007812 C 16.902344 23.023438 16.90625 23.03125 16.914062 23.03125 C 16.921875 23.03125 16.929688 23.027344 16.9375 23.019531 Z M 16.007812 23.964844 C 16.085938 23.917969 16.175781 23.839844 16.28125 23.726562 C 16.34375 23.660156 16.386719 23.605469 16.417969 23.566406 C 16.445312 23.523438 16.472656 23.484375 16.492188 23.441406 C 16.523438 23.367188 16.535156 23.289062 16.523438 23.210938 C 16.511719 23.136719 16.472656 23.066406 16.40625 23.003906 C 16.339844 22.941406 16.269531 22.910156 16.191406 22.902344 C 16.113281 22.898438 16.035156 22.914062 15.960938 22.949219 C 15.871094 22.988281 15.777344 23.058594 15.675781 23.167969 C 15.5625 23.289062 15.496094 23.386719 15.472656 23.464844 C 15.4375 23.539062 15.429688 23.617188 15.441406 23.699219 C 15.457031 23.777344 15.5 23.847656 15.566406 23.910156 C 15.636719 23.976562 15.707031 24.011719 15.785156 24.015625 C 15.863281 24.023438 15.9375 24.007812 16.007812 23.964844 Z M 16.007812 23.964844 " fill-opacity="1" fill-rule="nonzero"/></g></g></g></g></g><g clip-path="url(#9345d9a35e)"><g clip-path="url(#0443bb9b2c)"><g clip-path="url(#84b8d2978a)"><path fill="#3f78e0" d="M 16.085938 25.113281 C 16.050781 25.082031 16.050781 25.046875 16.085938 25.007812 L 17.519531 23.464844 C 17.554688 23.425781 17.589844 23.425781 17.625 23.457031 L 17.972656 23.78125 C 18.007812 23.8125 18.007812 23.847656 17.972656 23.882812 L 16.539062 25.429688 C 16.503906 25.46875 16.46875 25.46875 16.433594 25.4375 Z M 17.972656 23.410156 C 17.910156 23.351562 17.878906 23.285156 17.875 23.210938 C 17.871094 23.136719 17.898438 23.066406 17.957031 23.003906 C 18.015625 22.941406 18.082031 22.910156 18.15625 22.90625 C 18.230469 22.902344 18.300781 22.929688 18.363281 22.988281 C 18.425781 23.046875 18.457031 23.113281 18.457031 23.1875 C 18.460938 23.261719 18.429688 23.328125 18.371094 23.390625 C 18.316406 23.453125 18.25 23.488281 18.175781 23.488281 C 18.101562 23.492188 18.035156 23.464844 17.972656 23.410156 Z M 17.972656 23.410156 " fill-opacity="1" fill-rule="nonzero"/></g></g></g><g clip-path="url(#455e1ef9d8)"><g clip-path="url(#b33241ac6c)"><g clip-path="url(#8685bcd105)"><path fill="#3f78e0" d="M 18.785156 25.113281 C 18.75 25.148438 18.714844 25.152344 18.679688 25.117188 L 18.390625 24.847656 C 18.375 24.835938 18.363281 24.835938 18.351562 24.847656 L 17.734375 25.515625 C 17.667969 25.585938 17.632812 25.652344 17.628906 25.710938 C 17.628906 25.773438 17.660156 25.832031 17.722656 25.890625 L 17.816406 25.976562 C 17.851562 26.007812 17.851562 26.042969 17.816406 26.082031 L 17.5625 26.359375 C 17.527344 26.390625 17.492188 26.394531 17.453125 26.367188 C 17.367188 26.292969 17.304688 26.242188 17.269531 26.207031 C 17.089844 26.042969 16.984375 25.886719 16.953125 25.746094 C 16.921875 25.605469 16.980469 25.449219 17.128906 25.285156 L 17.914062 24.441406 C 17.925781 24.429688 17.925781 24.414062 17.914062 24.402344 L 17.746094 24.25 C 17.710938 24.214844 17.710938 24.183594 17.742188 24.144531 L 17.980469 23.890625 C 18.015625 23.855469 18.050781 23.851562 18.085938 23.886719 L 18.25 24.039062 C 18.261719 24.050781 18.277344 24.050781 18.289062 24.039062 L 18.625 23.671875 C 18.660156 23.636719 18.695312 23.636719 18.734375 23.667969 L 19.0625 23.972656 C 19.097656 24.007812 19.097656 24.042969 19.066406 24.082031 L 18.726562 24.445312 C 18.714844 24.457031 18.714844 24.46875 18.726562 24.480469 L 19.019531 24.753906 C 19.054688 24.785156 19.054688 24.820312 19.023438 24.859375 Z M 18.785156 25.113281 " fill-opacity="1" fill-rule="nonzero"/></g></g></g><g clip-path="url(#366c30edab)"><g clip-path="url(#2feb79e1a3)"><g clip-path="url(#c0aa10bcbd)"><path fill="#3f78e0" d="M 19.796875 25.429688 C 19.9375 25.558594 20.039062 25.699219 20.105469 25.847656 C 20.167969 26 20.195312 26.144531 20.175781 26.285156 C 20.160156 26.425781 20.105469 26.546875 20.007812 26.652344 L 19.007812 27.726562 C 18.972656 27.765625 18.9375 27.765625 18.902344 27.730469 L 18.558594 27.410156 C 18.519531 27.375 18.519531 27.339844 18.554688 27.304688 L 18.625 27.226562 C 18.632812 27.21875 18.636719 27.210938 18.632812 27.207031 C 18.628906 27.203125 18.621094 27.199219 18.609375 27.203125 C 18.40625 27.21875 18.210938 27.136719 18.015625 26.953125 C 17.847656 26.800781 17.753906 26.636719 17.730469 26.460938 C 17.703125 26.285156 17.765625 26.117188 17.914062 25.960938 C 18.066406 25.792969 18.246094 25.71875 18.445312 25.734375 C 18.644531 25.753906 18.851562 25.859375 19.066406 26.058594 L 19.394531 26.363281 C 19.40625 26.375 19.417969 26.375 19.429688 26.359375 L 19.492188 26.292969 C 19.558594 26.222656 19.585938 26.148438 19.582031 26.066406 C 19.574219 25.984375 19.527344 25.90625 19.445312 25.828125 C 19.378906 25.769531 19.316406 25.730469 19.257812 25.710938 C 19.195312 25.695312 19.136719 25.699219 19.085938 25.722656 C 19.046875 25.742188 19.011719 25.734375 18.984375 25.707031 L 18.667969 25.328125 C 18.652344 25.308594 18.644531 25.292969 18.640625 25.277344 C 18.636719 25.257812 18.644531 25.246094 18.65625 25.234375 C 18.75 25.15625 18.859375 25.109375 18.988281 25.097656 C 19.121094 25.085938 19.253906 25.109375 19.394531 25.164062 C 19.539062 25.222656 19.671875 25.3125 19.796875 25.429688 Z M 18.460938 26.738281 C 18.554688 26.824219 18.65625 26.871094 18.765625 26.882812 C 18.875 26.894531 18.964844 26.859375 19.039062 26.78125 L 19.144531 26.667969 C 19.15625 26.65625 19.15625 26.644531 19.140625 26.632812 L 18.914062 26.421875 C 18.816406 26.332031 18.722656 26.277344 18.632812 26.261719 C 18.542969 26.246094 18.46875 26.273438 18.40625 26.339844 C 18.351562 26.398438 18.328125 26.460938 18.339844 26.535156 C 18.351562 26.605469 18.390625 26.675781 18.460938 26.738281 Z M 18.460938 26.738281 " fill-opacity="1" fill-rule="nonzero"/></g></g></g><g clip-path="url(#7cff9b46f7)"><g clip-path="url(#6a3efd83e7)"><g clip-path="url(#fab56449c5)"><path fill="#3f78e0" d="M 19.097656 27.914062 C 19.0625 27.878906 19.0625 27.84375 19.09375 27.808594 L 21.089844 25.660156 C 21.125 25.625 21.160156 25.625 21.195312 25.65625 L 21.539062 25.976562 C 21.578125 26.011719 21.578125 26.046875 21.542969 26.085938 L 19.550781 28.230469 C 19.515625 28.265625 19.480469 28.269531 19.441406 28.234375 Z M 19.097656 27.914062 " fill-opacity="1" fill-rule="nonzero"/></g></g></g></svg>