<svg xmlns="http://www.w3.org/2000/svg" xmlns:xlink="http://www.w3.org/1999/xlink" width="500" zoomAndPan="magnify" viewBox="0 0 375 374.999991" height="500" preserveAspectRatio="xMidYMid meet" version="1.0"><path fill="#313f51" d="M 14.828125 94.011719 C 13.519531 94.011719 12.867188 93.359375 12.867188 92.058594 L 12.867188 14.054688 C 12.867188 12.746094 13.519531 12.09375 14.828125 12.09375 L 26.9375 12.09375 C 27.941406 12.09375 28.703125 12.527344 29.226562 13.402344 L 58.558594 62.03125 C 58.699219 62.40625 58.886719 62.542969 59.105469 62.464844 C 59.328125 62.324219 59.433594 62.109375 59.433594 61.808594 L 59.433594 14.054688 C 59.433594 12.746094 60.089844 12.09375 61.398438 12.09375 L 73.722656 12.09375 C 75.03125 12.09375 75.6875 12.746094 75.6875 14.054688 L 75.6875 92.058594 C 75.6875 93.359375 75.03125 94.011719 73.722656 94.011719 L 61.722656 94.011719 C 60.765625 94.011719 60.007812 93.554688 59.433594 92.597656 L 29.988281 43.429688 C 29.824219 43.152344 29.660156 43.042969 29.4375 43.101562 C 29.226562 43.183594 29.113281 43.371094 29.113281 43.640625 L 29.226562 92.058594 C 29.226562 93.359375 28.570312 94.011719 27.261719 94.011719 Z M 14.828125 94.011719 " fill-opacity="1" fill-rule="nonzero"/><path fill="#313f51" d="M 107.113281 94.992188 C 100.488281 94.992188 94.820312 93.308594 90.097656 89.882812 C 85.4375 86.398438 82.246094 81.695312 80.503906 75.738281 C 79.410156 72.113281 78.867188 68.125 78.867188 63.773438 C 78.867188 59.058594 79.441406 54.929688 80.609375 51.363281 C 82.410156 45.652344 85.65625 41.136719 90.320312 37.875 C 94.949219 34.5625 100.59375 32.867188 107.21875 32.867188 C 113.679688 32.867188 119.160156 34.5625 123.683594 37.875 C 128.265625 41.136719 131.457031 45.605469 133.289062 51.257812 C 134.433594 54.90625 135.03125 58.976562 135.03125 63.550781 C 135.03125 67.632812 134.515625 71.574219 133.5 75.410156 C 131.757812 81.503906 128.542969 86.289062 123.90625 89.765625 C 119.242188 93.25 113.65625 94.992188 107.113281 94.992188 Z M 107.113281 80.738281 C 109.648438 80.738281 111.800781 79.976562 113.542969 78.453125 C 115.339844 76.875 116.652344 74.734375 117.46875 72.035156 C 118.121094 69.9375 118.449219 67.199219 118.449219 63.773438 C 118.449219 60.507812 118.121094 57.757812 117.46875 55.503906 C 116.652344 52.835938 115.339844 50.765625 113.542969 49.300781 C 111.800781 47.863281 109.566406 47.125 106.890625 47.125 C 104.332031 47.125 102.148438 47.863281 100.347656 49.300781 C 98.523438 50.765625 97.214844 52.835938 96.421875 55.503906 C 95.824219 57.757812 95.554688 60.507812 95.554688 63.773438 C 95.554688 67.035156 95.824219 69.808594 96.421875 72.035156 C 97.214844 74.734375 98.523438 76.875 100.347656 78.453125 C 102.230469 79.976562 104.496094 80.738281 107.113281 80.738281 Z M 107.113281 80.738281 " fill-opacity="1" fill-rule="nonzero"/><path fill="#313f51" d="M 154.398438 94.011719 C 153.304688 94.011719 152.566406 93.472656 152.214844 92.382812 L 134 36.027344 C 133.917969 35.894531 133.894531 35.675781 133.894531 35.371094 C 133.894531 34.890625 134.03125 34.503906 134.328125 34.285156 C 134.605469 34.015625 135.039062 33.851562 135.636719 33.851562 L 149.492188 33.851562 C 150.578125 33.851562 151.292969 34.449219 151.667969 35.59375 L 161.050781 70.734375 C 161.1875 71.027344 161.378906 71.167969 161.597656 71.167969 C 161.8125 71.167969 161.949219 71.027344 162.03125 70.734375 L 171.414062 35.59375 C 171.847656 34.449219 172.609375 33.851562 173.703125 33.851562 L 187.550781 33.957031 C 188.207031 33.957031 188.664062 34.175781 188.96875 34.609375 C 189.320312 35.042969 189.402344 35.566406 189.1875 36.132812 L 171.085938 92.382812 C 170.703125 93.472656 169.910156 94.011719 168.679688 94.011719 Z M 154.398438 94.011719 " fill-opacity="1" fill-rule="nonzero"/><path fill="#313f51" d="M 219.582031 32.984375 C 222.121094 32.984375 224.1875 33.472656 225.800781 34.398438 C 226.722656 34.914062 227.109375 35.757812 226.886719 36.902344 L 224.703125 49.1875 C 224.621094 49.921875 224.410156 50.355469 224.050781 50.496094 C 223.671875 50.660156 223.101562 50.660156 222.308594 50.496094 C 221.054688 50.144531 219.933594 49.957031 218.929688 49.957031 C 218.324219 49.957031 217.425781 50.0625 216.199219 50.273438 C 213.367188 50.496094 210.960938 51.527344 209 53.328125 C 207.09375 55.152344 206.167969 57.570312 206.167969 60.613281 L 206.167969 92.058594 C 206.167969 93.359375 205.457031 94.011719 204.089844 94.011719 L 191.550781 94.011719 C 190.242188 94.011719 189.589844 93.359375 189.589844 92.058594 L 189.589844 35.8125 C 189.589844 34.503906 190.242188 33.851562 191.550781 33.851562 L 204.089844 33.851562 C 205.457031 33.851562 206.167969 34.503906 206.167969 35.8125 L 206.167969 39.511719 C 206.167969 39.804688 206.21875 40 206.382812 40.050781 C 206.519531 40.132812 206.707031 40.050781 206.929688 39.839844 C 210.039062 35.265625 214.265625 32.984375 219.582031 32.984375 Z M 219.582031 32.984375 " fill-opacity="1" fill-rule="nonzero"/><path fill="#313f51" d="M 261.175781 35.8125 C 261.175781 34.503906 261.832031 33.851562 263.140625 33.851562 L 275.6875 33.851562 C 276.996094 33.851562 277.652344 34.503906 277.652344 35.8125 L 277.652344 92.058594 C 277.652344 93.359375 276.996094 94.011719 275.6875 94.011719 L 263.140625 94.011719 C 261.832031 94.011719 261.175781 93.359375 261.175781 92.058594 L 261.175781 88.898438 C 261.175781 88.546875 261.070312 88.351562 260.851562 88.351562 C 260.636719 88.300781 260.441406 88.410156 260.308594 88.679688 C 257.25 92.816406 252.457031 94.878906 245.914062 94.878906 C 239.941406 94.878906 235.035156 93.113281 231.191406 89.554688 C 227.402344 85.9375 225.523438 80.851562 225.523438 74.324219 L 225.523438 35.8125 C 225.523438 34.503906 226.175781 33.851562 227.484375 33.851562 L 239.910156 33.851562 C 241.21875 33.851562 241.875 34.503906 241.875 35.8125 L 241.875 70.300781 C 241.875 73.421875 242.691406 75.953125 244.382812 77.914062 C 246.125 79.8125 248.449219 80.738281 251.363281 80.738281 C 254.035156 80.738281 256.21875 79.953125 257.90625 78.347656 C 259.65625 76.769531 260.742188 74.699219 261.175781 72.148438 Z M 261.175781 35.8125 " fill-opacity="1" fill-rule="nonzero"/><path fill="#313f51" d="M 280.007812 94.011719 C 278.699219 94.011719 278.042969 93.359375 278.042969 92.058594 L 278.042969 80.417969 C 278.042969 79.492188 278.320312 78.675781 278.917969 78.019531 L 304.980469 49.515625 C 305.117188 49.300781 305.144531 49.136719 305.09375 48.976562 C 305.09375 48.835938 304.929688 48.753906 304.652344 48.753906 L 280.777344 48.753906 C 279.386719 48.753906 278.699219 48.074219 278.699219 46.691406 L 278.699219 35.8125 C 278.699219 34.503906 279.386719 33.851562 280.777344 33.851562 L 323.417969 33.851562 C 324.773438 33.851562 325.484375 34.503906 325.484375 35.8125 L 325.484375 47.339844 C 325.484375 48.296875 325.160156 49.082031 324.503906 49.734375 L 297.675781 78.242188 C 297.453125 78.453125 297.347656 78.640625 297.347656 78.78125 C 297.40625 78.945312 297.617188 79.003906 298.003906 79.003906 L 324.070312 79.003906 C 325.378906 79.003906 326.035156 79.707031 326.035156 81.0625 L 326.035156 92.058594 C 326.035156 93.359375 325.378906 94.011719 324.070312 94.011719 Z M 280.007812 94.011719 " fill-opacity="1" fill-rule="nonzero"/><path fill="#313f51" d="M 133.910156 101.414062 C 133.910156 100.113281 134.5625 99.460938 135.871094 99.460938 L 148.414062 99.460938 C 149.722656 99.460938 150.375 100.113281 150.375 101.414062 L 150.375 179.425781 C 150.375 180.726562 149.722656 181.378906 148.414062 181.378906 L 135.871094 181.378906 C 134.5625 181.378906 133.910156 180.726562 133.910156 179.425781 L 133.910156 176.265625 C 133.910156 175.914062 133.804688 175.71875 133.582031 175.71875 C 133.371094 175.667969 133.171875 175.777344 133.042969 176.046875 C 129.820312 180.265625 125.355469 182.359375 119.628906 182.359375 C 114.3125 182.359375 109.589844 180.78125 105.445312 177.566406 C 101.355469 174.386719 98.574219 170.230469 97.050781 165.0625 C 95.660156 161.363281 94.972656 156.683594 94.972656 151.023438 C 94.972656 145.316406 95.742188 140.472656 97.265625 136.554688 C 98.933594 131.558594 101.738281 127.582031 105.664062 124.585938 C 109.648438 121.625 114.3125 120.128906 119.628906 120.128906 C 125.433594 120.128906 129.902344 122.058594 133.042969 125.898438 C 133.171875 126.117188 133.371094 126.191406 133.582031 126.117188 C 133.804688 126.058594 133.910156 125.871094 133.910156 125.570312 Z M 131.40625 162.886719 C 132.929688 159.996094 133.695312 156.113281 133.695312 151.246094 C 133.695312 146.101562 132.878906 142.109375 131.292969 139.277344 C 129.328125 136.226562 126.710938 134.707031 123.441406 134.707031 C 119.792969 134.707031 117.035156 136.203125 115.152344 139.171875 C 113.328125 142.296875 112.429688 146.402344 112.429688 151.457031 C 112.429688 156.03125 113.214844 159.84375 114.828125 162.886719 C 116.707031 166.230469 119.570312 167.890625 123.441406 167.890625 C 126.851562 167.890625 129.492188 166.230469 131.40625 162.886719 Z M 131.40625 162.886719 " fill-opacity="1" fill-rule="nonzero"/><path fill="#313f51" d="M 155.898438 181.378906 C 154.589844 181.378906 153.933594 180.726562 153.933594 179.425781 L 153.933594 123.171875 C 153.933594 121.871094 154.589844 121.21875 155.898438 121.21875 L 168.4375 121.21875 C 169.746094 121.21875 170.398438 121.871094 170.398438 123.171875 L 170.398438 179.425781 C 170.398438 180.726562 169.746094 181.378906 168.4375 181.378906 Z M 161.785156 113.929688 C 159.519531 113.929688 157.664062 113.25 156.222656 111.859375 C 154.832031 110.421875 154.144531 108.570312 154.144531 106.3125 C 154.144531 104.082031 154.832031 102.257812 156.222656 100.875 C 157.664062 99.433594 159.519531 98.699219 161.785156 98.699219 C 164.019531 98.699219 165.84375 99.433594 167.234375 100.875 C 168.601562 102.257812 169.3125 104.082031 169.3125 106.3125 C 169.3125 108.570312 168.601562 110.421875 167.234375 111.859375 C 165.84375 113.25 164.019531 113.929688 161.785156 113.929688 Z M 161.785156 113.929688 " fill-opacity="1" fill-rule="nonzero"/><path fill="#313f51" d="M 210.816406 123.171875 C 210.816406 121.871094 211.46875 121.21875 212.777344 121.21875 L 225.324219 121.21875 C 226.683594 121.21875 227.394531 121.871094 227.394531 123.171875 L 227.394531 176.046875 C 227.394531 186.1875 224.449219 193.453125 218.5625 197.804688 C 212.671875 202.214844 205.089844 204.445312 195.878906 204.445312 C 193.3125 204.445312 190.367188 204.25 187.046875 203.898438 C 185.867188 203.816406 185.292969 203.078125 185.292969 201.722656 L 185.84375 190.84375 C 185.84375 190.246094 186.007812 189.78125 186.390625 189.429688 C 186.824219 189.050781 187.371094 188.9375 188.027344 189.101562 C 190.914062 189.453125 193.3125 189.648438 195.226562 189.648438 C 200.238281 189.648438 204.082031 188.5625 206.78125 186.386719 C 209.457031 184.210938 210.816406 180.699219 210.816406 175.832031 C 210.816406 175.613281 210.734375 175.507812 210.601562 175.507812 C 210.4375 175.449219 210.21875 175.507812 209.949219 175.71875 C 207.027344 178.851562 202.75 180.398438 197.074219 180.398438 C 191.976562 180.398438 187.289062 179.203125 183.003906 176.808594 C 178.785156 174.359375 175.757812 170.359375 173.957031 164.839844 C 172.78125 161.304688 172.207031 156.652344 172.207031 150.917969 C 172.207031 144.824219 172.894531 139.898438 174.285156 136.121094 C 175.945312 131.335938 178.703125 127.5 182.570312 124.585938 C 186.496094 121.707031 191.019531 120.234375 196.207031 120.234375 C 202.09375 120.234375 206.675781 122.035156 209.949219 125.570312 C 210.21875 125.789062 210.4375 125.871094 210.601562 125.789062 C 210.734375 125.734375 210.816406 125.542969 210.816406 125.242188 Z M 209.832031 160.382812 C 210.488281 158.066406 210.816406 154.886719 210.816406 150.8125 C 210.816406 148.414062 210.734375 146.566406 210.601562 145.257812 C 210.4375 143.898438 210.160156 142.625 209.726562 141.453125 C 208.992188 139.359375 207.789062 137.699219 206.128906 136.449219 C 204.515625 135.140625 202.527344 134.492188 200.132812 134.492188 C 197.785156 134.492188 195.796875 135.140625 194.128906 136.449219 C 192.445312 137.699219 191.242188 139.359375 190.53125 141.453125 C 189.441406 143.792969 188.894531 146.941406 188.894531 150.917969 C 188.894531 155.269531 189.359375 158.394531 190.316406 160.277344 C 190.972656 162.394531 192.164062 164.078125 193.914062 165.386719 C 195.714844 166.6875 197.84375 167.34375 200.238281 167.34375 C 202.691406 167.34375 204.761719 166.6875 206.457031 165.386719 C 208.117188 164.078125 209.238281 162.417969 209.832031 160.382812 Z M 209.832031 160.382812 " fill-opacity="1" fill-rule="nonzero"/><path fill="#313f51" d="M 232.246094 181.378906 C 230.9375 181.378906 230.28125 180.726562 230.28125 179.425781 L 230.28125 123.171875 C 230.28125 121.871094 230.9375 121.21875 232.246094 121.21875 L 244.785156 121.21875 C 246.09375 121.21875 246.75 121.871094 246.75 123.171875 L 246.75 179.425781 C 246.75 180.726562 246.09375 181.378906 244.785156 181.378906 Z M 238.136719 113.929688 C 235.871094 113.929688 234.019531 113.25 232.574219 111.859375 C 231.183594 110.421875 230.503906 108.570312 230.503906 106.3125 C 230.503906 104.082031 231.183594 102.257812 232.574219 100.875 C 234.019531 99.433594 235.871094 98.699219 238.136719 98.699219 C 240.367188 98.699219 242.199219 99.433594 243.589844 100.875 C 244.949219 102.257812 245.660156 104.082031 245.660156 106.3125 C 245.660156 108.570312 244.949219 110.421875 243.589844 111.859375 C 242.199219 113.25 240.367188 113.929688 238.136719 113.929688 Z M 238.136719 113.929688 " fill-opacity="1" fill-rule="nonzero"/><path fill="#313f51" d="M 284.882812 132.425781 C 284.882812 133.804688 284.226562 134.492188 282.917969 134.492188 L 272.34375 134.492188 C 271.910156 134.492188 271.6875 134.707031 271.6875 135.140625 L 271.6875 159.402344 C 271.6875 161.960938 272.179688 163.832031 273.21875 165.0625 C 274.304688 166.3125 276 166.910156 278.339844 166.910156 L 281.609375 166.910156 C 282.976562 166.910156 283.6875 167.5625 283.6875 168.863281 L 283.6875 178.875 C 283.6875 180.183594 282.976562 180.914062 281.609375 181.050781 C 278.617188 181.214844 276.488281 181.273438 275.179688 181.273438 C 268.6875 181.273438 263.859375 180.183594 260.679688 178.007812 C 257.457031 175.832031 255.796875 171.777344 255.65625 165.820312 L 255.65625 135.140625 C 255.65625 134.707031 255.445312 134.492188 255 134.492188 L 249.007812 134.492188 C 247.699219 134.492188 247.042969 133.804688 247.042969 132.425781 L 247.042969 123.171875 C 247.042969 121.871094 247.699219 121.21875 249.007812 121.21875 L 255 121.21875 C 255.445312 121.21875 255.65625 120.972656 255.65625 120.457031 L 255.65625 107.296875 C 255.65625 105.988281 256.34375 105.332031 257.734375 105.332031 L 269.617188 105.332031 C 270.976562 105.332031 271.6875 105.988281 271.6875 107.296875 L 271.6875 120.457031 C 271.6875 120.972656 271.910156 121.21875 272.34375 121.21875 L 282.917969 121.21875 C 284.226562 121.21875 284.882812 121.871094 284.882812 123.171875 Z M 284.882812 132.425781 " fill-opacity="1" fill-rule="nonzero"/><path fill="#313f51" d="M 310.535156 120.234375 C 315.605469 120.234375 320.128906 121.160156 324.054688 122.960938 C 328.039062 124.703125 331.171875 127.089844 333.4375 130.140625 C 335.667969 133.183594 336.816406 136.554688 336.816406 140.261719 L 336.816406 179.425781 C 336.816406 180.726562 336.101562 181.378906 334.746094 181.378906 L 322.207031 181.378906 C 320.898438 181.378906 320.242188 180.726562 320.242188 179.425781 L 320.242188 176.59375 C 320.242188 176.316406 320.160156 176.160156 320.023438 176.160156 C 319.859375 176.101562 319.636719 176.160156 319.367188 176.375 C 315.792969 180.375 310.453125 182.359375 303.335938 182.359375 C 297.28125 182.359375 292.433594 180.886719 288.71875 177.894531 C 285.070312 174.933594 283.269531 170.558594 283.269531 164.734375 C 283.269531 158.722656 285.363281 154.074219 289.59375 150.8125 C 293.789062 147.492188 299.84375 145.804688 307.695312 145.804688 L 319.472656 145.804688 C 319.964844 145.804688 320.242188 145.558594 320.242188 145.046875 L 320.242188 142.648438 C 320.242188 140.039062 319.425781 138.050781 317.839844 136.667969 C 316.234375 135.222656 313.910156 134.492188 310.859375 134.492188 C 308.511719 134.492188 306.605469 134.894531 305.078125 135.6875 C 303.554688 136.421875 302.492188 137.480469 301.921875 138.84375 C 301.480469 139.933594 300.71875 140.449219 299.628906 140.367188 L 286.542969 138.730469 C 285.886719 138.679688 285.363281 138.519531 285.011719 138.296875 C 284.710938 138.027344 284.605469 137.617188 284.6875 137.101562 C 285.039062 133.921875 286.378906 131.066406 288.71875 128.503906 C 291.042969 125.898438 294.09375 123.882812 297.878906 122.410156 C 301.640625 120.972656 305.871094 120.234375 310.535156 120.234375 Z M 308.136719 170.066406 C 311.457031 170.066406 314.296875 169.167969 316.644531 167.34375 C 319.039062 165.550781 320.242188 163.210938 320.242188 160.382812 L 320.242188 156.359375 C 320.242188 155.867188 319.964844 155.597656 319.472656 155.597656 L 311.1875 155.597656 C 307.695312 155.597656 304.914062 156.300781 302.902344 157.667969 C 300.855469 158.96875 299.84375 160.816406 299.84375 163.210938 C 299.84375 165.332031 300.613281 166.992188 302.132812 168.21875 C 303.664062 169.46875 305.652344 170.066406 308.136719 170.066406 Z M 308.136719 170.066406 " fill-opacity="1" fill-rule="nonzero"/><path fill="#313f51" d="M 341.871094 181.378906 C 340.5625 181.378906 339.90625 180.726562 339.90625 179.425781 L 339.90625 101.414062 C 339.90625 100.113281 340.5625 99.460938 341.871094 99.460938 L 354.523438 99.460938 C 355.832031 99.460938 356.488281 100.113281 356.488281 101.414062 L 356.488281 179.425781 C 356.488281 180.726562 355.832031 181.378906 354.523438 181.378906 Z M 341.871094 181.378906 " fill-opacity="1" fill-rule="nonzero"/></svg>