<svg xmlns="http://www.w3.org/2000/svg" xmlns:xlink="http://www.w3.org/1999/xlink" width="500" zoomAndPan="magnify" viewBox="0 0 375 374.999991" height="500" preserveAspectRatio="xMidYMid meet" version="1.0"><path fill="#313f51" d="M 86.292969 192.964844 C 85.667969 192.964844 85.355469 192.652344 85.355469 192.03125 L 85.355469 154.78125 C 85.355469 154.15625 85.667969 153.84375 86.292969 153.84375 L 92.074219 153.84375 C 92.554688 153.84375 92.917969 154.050781 93.167969 154.46875 L 107.175781 177.691406 C 107.242188 177.871094 107.332031 177.9375 107.4375 177.898438 C 107.542969 177.832031 107.59375 177.730469 107.59375 177.585938 L 107.59375 154.78125 C 107.59375 154.15625 107.90625 153.84375 108.53125 153.84375 L 114.417969 153.84375 C 115.042969 153.84375 115.355469 154.15625 115.355469 154.78125 L 115.355469 192.03125 C 115.355469 192.652344 115.042969 192.964844 114.417969 192.964844 L 108.6875 192.964844 C 108.230469 192.964844 107.867188 192.746094 107.59375 192.289062 L 93.53125 168.808594 C 93.453125 168.675781 93.375 168.625 93.269531 168.652344 C 93.167969 168.691406 93.113281 168.78125 93.113281 168.910156 L 93.167969 192.03125 C 93.167969 192.652344 92.855469 192.964844 92.230469 192.964844 Z M 86.292969 192.964844 " fill-opacity="1" fill-rule="nonzero"/><path fill="#313f51" d="M 130.363281 193.433594 C 127.199219 193.433594 124.492188 192.628906 122.238281 190.992188 C 120.011719 189.328125 118.488281 187.082031 117.65625 184.238281 C 117.132812 182.507812 116.875 180.601562 116.875 178.523438 C 116.875 176.273438 117.148438 174.300781 117.707031 172.597656 C 118.566406 169.871094 120.117188 167.714844 122.34375 166.15625 C 124.554688 164.574219 127.25 163.765625 130.414062 163.765625 C 133.5 163.765625 136.117188 164.574219 138.277344 166.15625 C 140.464844 167.714844 141.988281 169.847656 142.863281 172.546875 C 143.410156 174.289062 143.695312 176.234375 143.695312 178.417969 C 143.695312 180.367188 143.449219 182.25 142.964844 184.082031 C 142.132812 186.992188 140.597656 189.277344 138.382812 190.9375 C 136.15625 192.601562 133.488281 193.433594 130.363281 193.433594 Z M 130.363281 186.625 C 131.574219 186.625 132.601562 186.261719 133.433594 185.535156 C 134.292969 184.78125 134.917969 183.757812 135.308594 182.46875 C 135.621094 181.46875 135.777344 180.160156 135.777344 178.523438 C 135.777344 176.964844 135.621094 175.652344 135.308594 174.574219 C 134.917969 173.300781 134.292969 172.3125 133.433594 171.613281 C 132.601562 170.925781 131.535156 170.574219 130.257812 170.574219 C 129.035156 170.574219 127.992188 170.925781 127.132812 171.613281 C 126.261719 172.3125 125.636719 173.300781 125.257812 174.574219 C 124.972656 175.652344 124.84375 176.964844 124.84375 178.523438 C 124.84375 180.082031 124.972656 181.40625 125.257812 182.46875 C 125.636719 183.757812 126.261719 184.78125 127.132812 185.535156 C 128.03125 186.261719 129.113281 186.625 130.363281 186.625 Z M 130.363281 186.625 " fill-opacity="1" fill-rule="nonzero"/><path fill="#313f51" d="M 152.945312 192.964844 C 152.421875 192.964844 152.070312 192.707031 151.902344 192.1875 L 143.203125 165.273438 C 143.164062 165.210938 143.152344 165.105469 143.152344 164.960938 C 143.152344 164.730469 143.21875 164.546875 143.359375 164.441406 C 143.492188 164.3125 143.699219 164.234375 143.984375 164.234375 L 150.601562 164.234375 C 151.121094 164.234375 151.460938 164.519531 151.640625 165.066406 L 156.121094 181.847656 C 156.1875 181.988281 156.277344 182.054688 156.382812 182.054688 C 156.484375 182.054688 156.550781 181.988281 156.589844 181.847656 L 161.070312 165.066406 C 161.277344 164.519531 161.640625 164.234375 162.164062 164.234375 L 168.777344 164.285156 C 169.089844 164.285156 169.308594 164.390625 169.453125 164.597656 C 169.621094 164.804688 169.660156 165.054688 169.558594 165.324219 L 160.914062 192.1875 C 160.730469 192.707031 160.351562 192.964844 159.765625 192.964844 Z M 152.945312 192.964844 " fill-opacity="1" fill-rule="nonzero"/><path fill="#313f51" d="M 184.074219 163.820312 C 185.285156 163.820312 186.273438 164.054688 187.042969 164.496094 C 187.484375 164.742188 187.667969 165.144531 187.5625 165.691406 L 186.519531 171.558594 C 186.480469 171.910156 186.378906 172.117188 186.207031 172.183594 C 186.027344 172.261719 185.753906 172.261719 185.375 172.183594 C 184.777344 172.015625 184.242188 171.925781 183.761719 171.925781 C 183.472656 171.925781 183.042969 171.976562 182.457031 172.078125 C 181.105469 172.183594 179.957031 172.675781 179.019531 173.535156 C 178.109375 174.40625 177.667969 175.5625 177.667969 177.015625 L 177.667969 192.03125 C 177.667969 192.652344 177.328125 192.964844 176.675781 192.964844 L 170.6875 192.964844 C 170.0625 192.964844 169.75 192.652344 169.75 192.03125 L 169.75 165.171875 C 169.75 164.546875 170.0625 164.234375 170.6875 164.234375 L 176.675781 164.234375 C 177.328125 164.234375 177.667969 164.546875 177.667969 165.171875 L 177.667969 166.9375 C 177.667969 167.078125 177.691406 167.171875 177.769531 167.195312 C 177.835938 167.234375 177.925781 167.195312 178.03125 167.09375 C 179.515625 164.910156 181.535156 163.820312 184.074219 163.820312 Z M 184.074219 163.820312 " fill-opacity="1" fill-rule="nonzero"/><path fill="#313f51" d="M 203.9375 165.171875 C 203.9375 164.546875 204.25 164.234375 204.875 164.234375 L 210.867188 164.234375 C 211.492188 164.234375 211.804688 164.546875 211.804688 165.171875 L 211.804688 192.03125 C 211.804688 192.652344 211.492188 192.964844 210.867188 192.964844 L 204.875 192.964844 C 204.25 192.964844 203.9375 192.652344 203.9375 192.03125 L 203.9375 190.523438 C 203.9375 190.355469 203.886719 190.261719 203.78125 190.261719 C 203.679688 190.238281 203.585938 190.289062 203.523438 190.417969 C 202.0625 192.394531 199.773438 193.378906 196.648438 193.378906 C 193.796875 193.378906 191.453125 192.535156 189.617188 190.835938 C 187.808594 189.109375 186.910156 186.679688 186.910156 183.5625 L 186.910156 165.171875 C 186.910156 164.546875 187.222656 164.234375 187.847656 164.234375 L 193.78125 164.234375 C 194.40625 164.234375 194.71875 164.546875 194.71875 165.171875 L 194.71875 181.640625 C 194.71875 183.132812 195.109375 184.339844 195.917969 185.277344 C 196.75 186.183594 197.859375 186.625 199.25 186.625 C 200.527344 186.625 201.570312 186.25 202.375 185.484375 C 203.210938 184.730469 203.730469 183.742188 203.9375 182.523438 Z M 203.9375 165.171875 " fill-opacity="1" fill-rule="nonzero"/><path fill="#313f51" d="M 212.929688 192.964844 C 212.304688 192.964844 211.992188 192.652344 211.992188 192.03125 L 211.992188 186.472656 C 211.992188 186.03125 212.125 185.640625 212.410156 185.328125 L 224.855469 171.714844 C 224.921875 171.613281 224.933594 171.535156 224.910156 171.457031 C 224.910156 171.390625 224.832031 171.351562 224.699219 171.351562 L 213.296875 171.351562 C 212.632812 171.351562 212.304688 171.027344 212.304688 170.367188 L 212.304688 165.171875 C 212.304688 164.546875 212.632812 164.234375 213.296875 164.234375 L 233.660156 164.234375 C 234.308594 164.234375 234.648438 164.546875 234.648438 165.171875 L 234.648438 170.675781 C 234.648438 171.132812 234.492188 171.507812 234.179688 171.820312 L 221.367188 185.433594 C 221.261719 185.535156 221.210938 185.625 221.210938 185.691406 C 221.238281 185.769531 221.339844 185.796875 221.523438 185.796875 L 233.972656 185.796875 C 234.597656 185.796875 234.910156 186.132812 234.910156 186.78125 L 234.910156 192.03125 C 234.910156 192.652344 234.597656 192.964844 233.972656 192.964844 Z M 212.929688 192.964844 " fill-opacity="1" fill-rule="nonzero"/><path fill="#313f51" d="M 143.160156 196.5 C 143.160156 195.878906 143.472656 195.566406 144.097656 195.566406 L 150.085938 195.566406 C 150.710938 195.566406 151.023438 195.878906 151.023438 196.5 L 151.023438 233.753906 C 151.023438 234.375 150.710938 234.6875 150.085938 234.6875 L 144.097656 234.6875 C 143.472656 234.6875 143.160156 234.375 143.160156 233.753906 L 143.160156 232.246094 C 143.160156 232.078125 143.109375 231.984375 143.003906 231.984375 C 142.902344 231.960938 142.808594 232.011719 142.746094 232.140625 C 141.207031 234.15625 139.074219 235.15625 136.339844 235.15625 C 133.800781 235.15625 131.546875 234.402344 129.566406 232.867188 C 127.613281 231.347656 126.285156 229.363281 125.558594 226.894531 C 124.894531 225.128906 124.566406 222.894531 124.566406 220.191406 C 124.566406 217.464844 124.933594 215.152344 125.660156 213.28125 C 126.457031 210.894531 127.796875 208.996094 129.671875 207.566406 C 131.574219 206.152344 133.800781 205.4375 136.339844 205.4375 C 139.113281 205.4375 141.246094 206.359375 142.746094 208.191406 C 142.808594 208.296875 142.902344 208.332031 143.003906 208.296875 C 143.109375 208.269531 143.160156 208.179688 143.160156 208.035156 Z M 141.964844 225.855469 C 142.691406 224.476562 143.058594 222.621094 143.058594 220.296875 C 143.058594 217.839844 142.667969 215.933594 141.910156 214.582031 C 140.972656 213.125 139.722656 212.398438 138.160156 212.398438 C 136.417969 212.398438 135.101562 213.113281 134.203125 214.53125 C 133.332031 216.023438 132.902344 217.984375 132.902344 220.398438 C 132.902344 222.582031 133.277344 224.402344 134.046875 225.855469 C 134.945312 227.453125 136.3125 228.246094 138.160156 228.246094 C 139.789062 228.246094 141.050781 227.453125 141.964844 225.855469 Z M 141.964844 225.855469 " fill-opacity="1" fill-rule="nonzero"/><path fill="#313f51" d="M 153.660156 234.6875 C 153.035156 234.6875 152.722656 234.375 152.722656 233.753906 L 152.722656 206.890625 C 152.722656 206.269531 153.035156 205.957031 153.660156 205.957031 L 159.648438 205.957031 C 160.273438 205.957031 160.585938 206.269531 160.585938 206.890625 L 160.585938 233.753906 C 160.585938 234.375 160.273438 234.6875 159.648438 234.6875 Z M 156.472656 202.476562 C 155.390625 202.476562 154.503906 202.152344 153.816406 201.488281 C 153.152344 200.800781 152.824219 199.917969 152.824219 198.839844 C 152.824219 197.773438 153.152344 196.902344 153.816406 196.242188 C 154.503906 195.554688 155.390625 195.203125 156.472656 195.203125 C 157.539062 195.203125 158.410156 195.554688 159.074219 196.242188 C 159.726562 196.902344 160.066406 197.773438 160.066406 198.839844 C 160.066406 199.917969 159.726562 200.800781 159.074219 201.488281 C 158.410156 202.152344 157.539062 202.476562 156.472656 202.476562 Z M 156.472656 202.476562 " fill-opacity="1" fill-rule="nonzero"/><path fill="#313f51" d="M 179.886719 206.890625 C 179.886719 206.269531 180.199219 205.957031 180.824219 205.957031 L 186.816406 205.957031 C 187.464844 205.957031 187.804688 206.269531 187.804688 206.890625 L 187.804688 232.140625 C 187.804688 236.984375 186.398438 240.453125 183.585938 242.53125 C 180.773438 244.636719 177.152344 245.703125 172.753906 245.703125 C 171.527344 245.703125 170.121094 245.609375 168.535156 245.441406 C 167.972656 245.402344 167.699219 245.050781 167.699219 244.402344 L 167.960938 239.207031 C 167.960938 238.921875 168.039062 238.699219 168.222656 238.53125 C 168.429688 238.351562 168.691406 238.296875 169.003906 238.375 C 170.382812 238.542969 171.527344 238.636719 172.441406 238.636719 C 174.835938 238.636719 176.671875 238.117188 177.960938 237.078125 C 179.238281 236.039062 179.886719 234.363281 179.886719 232.039062 C 179.886719 231.933594 179.847656 231.882812 179.785156 231.882812 C 179.707031 231.855469 179.601562 231.882812 179.472656 231.984375 C 178.078125 233.480469 176.035156 234.21875 173.324219 234.21875 C 170.890625 234.21875 168.652344 233.648438 166.605469 232.503906 C 164.589844 231.335938 163.144531 229.425781 162.285156 226.789062 C 161.722656 225.101562 161.449219 222.878906 161.449219 220.140625 C 161.449219 217.230469 161.777344 214.878906 162.441406 213.074219 C 163.234375 210.789062 164.550781 208.957031 166.398438 207.566406 C 168.273438 206.191406 170.433594 205.488281 172.910156 205.488281 C 175.722656 205.488281 177.910156 206.347656 179.472656 208.035156 C 179.601562 208.140625 179.707031 208.179688 179.785156 208.140625 C 179.847656 208.113281 179.886719 208.023438 179.886719 207.878906 Z M 179.417969 224.660156 C 179.730469 223.554688 179.886719 222.035156 179.886719 220.089844 C 179.886719 218.945312 179.847656 218.0625 179.785156 217.4375 C 179.707031 216.789062 179.574219 216.179688 179.367188 215.621094 C 179.015625 214.621094 178.441406 213.828125 177.648438 213.230469 C 176.878906 212.605469 175.929688 212.296875 174.785156 212.296875 C 173.664062 212.296875 172.714844 212.605469 171.917969 213.230469 C 171.113281 213.828125 170.539062 214.621094 170.199219 215.621094 C 169.679688 216.738281 169.417969 218.242188 169.417969 220.140625 C 169.417969 222.21875 169.640625 223.710938 170.097656 224.609375 C 170.410156 225.621094 170.980469 226.425781 171.816406 227.050781 C 172.675781 227.671875 173.691406 227.984375 174.835938 227.984375 C 176.007812 227.984375 176.996094 227.671875 177.804688 227.050781 C 178.597656 226.425781 179.132812 225.632812 179.417969 224.660156 Z M 179.417969 224.660156 " fill-opacity="1" fill-rule="nonzero"/><path fill="#313f51" d="M 190.121094 234.6875 C 189.496094 234.6875 189.183594 234.375 189.183594 233.753906 L 189.183594 206.890625 C 189.183594 206.269531 189.496094 205.957031 190.121094 205.957031 L 196.109375 205.957031 C 196.734375 205.957031 197.046875 206.269531 197.046875 206.890625 L 197.046875 233.753906 C 197.046875 234.375 196.734375 234.6875 196.109375 234.6875 Z M 192.933594 202.476562 C 191.851562 202.476562 190.96875 202.152344 190.277344 201.488281 C 189.613281 200.800781 189.289062 199.917969 189.289062 198.839844 C 189.289062 197.773438 189.613281 196.902344 190.277344 196.242188 C 190.96875 195.554688 191.851562 195.203125 192.933594 195.203125 C 194 195.203125 194.875 195.554688 195.539062 196.242188 C 196.1875 196.902344 196.527344 197.773438 196.527344 198.839844 C 196.527344 199.917969 196.1875 200.800781 195.539062 201.488281 C 194.875 202.152344 194 202.476562 192.933594 202.476562 Z M 192.933594 202.476562 " fill-opacity="1" fill-rule="nonzero"/><path fill="#313f51" d="M 215.257812 211.308594 C 215.257812 211.96875 214.945312 212.296875 214.320312 212.296875 L 209.269531 212.296875 C 209.0625 212.296875 208.957031 212.398438 208.957031 212.605469 L 208.957031 224.191406 C 208.957031 225.414062 209.191406 226.308594 209.6875 226.894531 C 210.207031 227.492188 211.015625 227.777344 212.132812 227.777344 L 213.695312 227.777344 C 214.347656 227.777344 214.6875 228.089844 214.6875 228.710938 L 214.6875 233.492188 C 214.6875 234.117188 214.347656 234.464844 213.695312 234.53125 C 212.265625 234.609375 211.25 234.636719 210.625 234.636719 C 207.523438 234.636719 205.21875 234.117188 203.699219 233.078125 C 202.160156 232.039062 201.367188 230.101562 201.300781 227.257812 L 201.300781 212.605469 C 201.300781 212.398438 201.199219 212.296875 200.988281 212.296875 L 198.125 212.296875 C 197.5 212.296875 197.1875 211.96875 197.1875 211.308594 L 197.1875 206.890625 C 197.1875 206.269531 197.5 205.957031 198.125 205.957031 L 200.988281 205.957031 C 201.199219 205.957031 201.300781 205.839844 201.300781 205.59375 L 201.300781 199.308594 C 201.300781 198.683594 201.628906 198.371094 202.292969 198.371094 L 207.96875 198.371094 C 208.617188 198.371094 208.957031 198.683594 208.957031 199.308594 L 208.957031 205.59375 C 208.957031 205.839844 209.0625 205.957031 209.269531 205.957031 L 214.320312 205.957031 C 214.945312 205.957031 215.257812 206.269531 215.257812 206.890625 Z M 215.257812 211.308594 " fill-opacity="1" fill-rule="nonzero"/><path fill="#313f51" d="M 227.507812 205.488281 C 229.929688 205.488281 232.089844 205.929688 233.964844 206.789062 C 235.867188 207.621094 237.363281 208.761719 238.445312 210.21875 C 239.511719 211.671875 240.058594 213.28125 240.058594 215.050781 L 240.058594 233.753906 C 240.058594 234.375 239.71875 234.6875 239.070312 234.6875 L 233.082031 234.6875 C 232.457031 234.6875 232.144531 234.375 232.144531 233.753906 L 232.144531 232.402344 C 232.144531 232.269531 232.105469 232.195312 232.039062 232.195312 C 231.960938 232.167969 231.855469 232.195312 231.726562 232.296875 C 230.019531 234.207031 227.46875 235.15625 224.070312 235.15625 C 221.179688 235.15625 218.863281 234.453125 217.089844 233.023438 C 215.347656 231.609375 214.488281 229.519531 214.488281 226.738281 C 214.488281 223.867188 215.488281 221.648438 217.507812 220.089844 C 219.511719 218.503906 222.402344 217.699219 226.152344 217.699219 L 231.777344 217.699219 C 232.011719 217.699219 232.144531 217.582031 232.144531 217.335938 L 232.144531 216.191406 C 232.144531 214.945312 231.753906 213.996094 230.996094 213.335938 C 230.230469 212.644531 229.121094 212.296875 227.664062 212.296875 C 226.542969 212.296875 225.632812 212.488281 224.902344 212.867188 C 224.175781 213.21875 223.667969 213.722656 223.394531 214.375 C 223.183594 214.894531 222.820312 215.140625 222.300781 215.101562 L 216.050781 214.320312 C 215.738281 214.296875 215.488281 214.21875 215.320312 214.113281 C 215.175781 213.984375 215.125 213.789062 215.164062 213.542969 C 215.332031 212.023438 215.972656 210.660156 217.089844 209.4375 C 218.199219 208.191406 219.65625 207.230469 221.464844 206.527344 C 223.261719 205.839844 225.28125 205.488281 227.507812 205.488281 Z M 226.363281 229.285156 C 227.949219 229.285156 229.304688 228.855469 230.425781 227.984375 C 231.570312 227.128906 232.144531 226.011719 232.144531 224.660156 L 232.144531 222.738281 C 232.144531 222.503906 232.011719 222.375 231.777344 222.375 L 227.820312 222.375 C 226.152344 222.375 224.824219 222.710938 223.863281 223.363281 C 222.886719 223.984375 222.402344 224.867188 222.402344 226.011719 C 222.402344 227.023438 222.769531 227.816406 223.496094 228.402344 C 224.226562 229 225.175781 229.285156 226.363281 229.285156 Z M 226.363281 229.285156 " fill-opacity="1" fill-rule="nonzero"/><path fill="#313f51" d="M 242.472656 234.6875 C 241.847656 234.6875 241.535156 234.375 241.535156 233.753906 L 241.535156 196.5 C 241.535156 195.878906 241.847656 195.566406 242.472656 195.566406 L 248.515625 195.566406 C 249.140625 195.566406 249.453125 195.878906 249.453125 196.5 L 249.453125 233.753906 C 249.453125 234.375 249.140625 234.6875 248.515625 234.6875 Z M 242.472656 234.6875 " fill-opacity="1" fill-rule="nonzero"/></svg>
