<svg xmlns="http://www.w3.org/2000/svg" xmlns:xlink="http://www.w3.org/1999/xlink" width="250" zoomAndPan="magnify" viewBox="0 0 187.5 60" height="80" preserveAspectRatio="xMidYMid meet" version="1.0"><defs><g/><clipPath id="f46a0d569c"><path d="M 76 34 L 93 34 L 93 59.917969 L 76 59.917969 Z M 76 34 " clip-rule="nonzero"/></clipPath></defs><g fill="#ffffff" fill-opacity="1"><g transform="translate(27.4825, 26.949551)"><g><path d="M 2.703125 0 C 2.304688 0 2.109375 -0.195312 2.109375 -0.59375 L 2.109375 -23.671875 C 2.109375 -24.066406 2.304688 -24.265625 2.703125 -24.265625 L 6.265625 -24.265625 C 6.566406 -24.265625 6.800781 -24.132812 6.96875 -23.875 L 15.625 -9.46875 C 15.675781 -9.375 15.726562 -9.335938 15.78125 -9.359375 C 15.84375 -9.378906 15.875 -9.4375 15.875 -9.53125 L 15.875 -23.671875 C 15.875 -24.066406 16.070312 -24.265625 16.46875 -24.265625 L 20.09375 -24.265625 C 20.488281 -24.265625 20.6875 -24.066406 20.6875 -23.671875 L 20.6875 -0.59375 C 20.6875 -0.195312 20.488281 0 20.09375 0 L 16.5625 0 C 16.289062 0 16.0625 -0.140625 15.875 -0.421875 L 7.171875 -14.96875 C 7.128906 -15.0625 7.078125 -15.097656 7.015625 -15.078125 C 6.960938 -15.054688 6.9375 -15 6.9375 -14.90625 L 6.96875 -0.59375 C 6.96875 -0.195312 6.769531 0 6.375 0 Z M 2.703125 0 "/></g></g></g><g fill="#ffffff" fill-opacity="1"><g transform="translate(47.746068, 26.949551)"><g><path d="M 9.703125 0.28125 C 7.742188 0.28125 6.066406 -0.222656 4.671875 -1.234375 C 3.285156 -2.253906 2.34375 -3.644531 1.84375 -5.40625 C 1.519531 -6.488281 1.359375 -7.664062 1.359375 -8.9375 C 1.359375 -10.351562 1.53125 -11.578125 1.875 -12.609375 C 2.40625 -14.316406 3.359375 -15.65625 4.734375 -16.625 C 6.109375 -17.601562 7.773438 -18.09375 9.734375 -18.09375 C 11.628906 -18.09375 13.253906 -17.601562 14.609375 -16.625 C 15.960938 -15.65625 16.90625 -14.332031 17.4375 -12.65625 C 17.78125 -11.59375 17.953125 -10.378906 17.953125 -9.015625 C 17.953125 -7.804688 17.800781 -6.640625 17.5 -5.515625 C 16.96875 -3.710938 16.015625 -2.296875 14.640625 -1.265625 C 13.265625 -0.234375 11.617188 0.28125 9.703125 0.28125 Z M 9.703125 -3.921875 C 10.441406 -3.921875 11.078125 -4.148438 11.609375 -4.609375 C 12.140625 -5.066406 12.519531 -5.703125 12.75 -6.515625 C 12.9375 -7.140625 13.03125 -7.945312 13.03125 -8.9375 C 13.03125 -9.90625 12.9375 -10.726562 12.75 -11.40625 C 12.519531 -12.1875 12.140625 -12.796875 11.609375 -13.234375 C 11.078125 -13.671875 10.421875 -13.890625 9.640625 -13.890625 C 8.867188 -13.890625 8.21875 -13.671875 7.6875 -13.234375 C 7.15625 -12.796875 6.773438 -12.1875 6.546875 -11.40625 C 6.359375 -10.726562 6.265625 -9.90625 6.265625 -8.9375 C 6.265625 -7.988281 6.359375 -7.179688 6.546875 -6.515625 C 6.773438 -5.703125 7.160156 -5.066406 7.703125 -4.609375 C 8.253906 -4.148438 8.921875 -3.921875 9.703125 -3.921875 Z M 9.703125 -3.921875 "/></g></g></g><g fill="#ffffff" fill-opacity="1"><g transform="translate(64.510754, 26.949551)"><g><path d="M 6.890625 0 C 6.566406 0 6.347656 -0.160156 6.234375 -0.484375 L 0.859375 -17.15625 C 0.835938 -17.195312 0.828125 -17.265625 0.828125 -17.359375 C 0.828125 -17.503906 0.875 -17.613281 0.96875 -17.6875 C 1.0625 -17.769531 1.191406 -17.8125 1.359375 -17.8125 L 5.4375 -17.8125 C 5.757812 -17.8125 5.976562 -17.640625 6.09375 -17.296875 L 8.875 -6.890625 C 8.894531 -6.804688 8.9375 -6.765625 9 -6.765625 C 9.070312 -6.765625 9.125 -6.804688 9.15625 -6.890625 L 11.921875 -17.296875 C 12.035156 -17.640625 12.253906 -17.8125 12.578125 -17.8125 L 16.671875 -17.78125 C 16.878906 -17.78125 17.03125 -17.710938 17.125 -17.578125 C 17.21875 -17.453125 17.226562 -17.300781 17.15625 -17.125 L 11.8125 -0.484375 C 11.695312 -0.160156 11.46875 0 11.125 0 Z M 6.890625 0 "/></g></g></g><g fill="#ffffff" fill-opacity="1"><g transform="translate(79.993677, 26.949551)"><g><path d="M 10.671875 -18.0625 C 11.410156 -18.0625 12.023438 -17.921875 12.515625 -17.640625 C 12.785156 -17.503906 12.890625 -17.257812 12.828125 -16.90625 L 12.171875 -13.265625 C 12.140625 -13.066406 12.070312 -12.941406 11.96875 -12.890625 C 11.863281 -12.847656 11.695312 -12.847656 11.46875 -12.890625 C 11.101562 -12.984375 10.769531 -13.03125 10.46875 -13.03125 C 10.300781 -13.03125 10.035156 -13.007812 9.671875 -12.96875 C 8.835938 -12.894531 8.128906 -12.585938 7.546875 -12.046875 C 6.972656 -11.503906 6.6875 -10.78125 6.6875 -9.875 L 6.6875 -0.59375 C 6.6875 -0.195312 6.488281 0 6.09375 0 L 2.390625 0 C 1.992188 0 1.796875 -0.195312 1.796875 -0.59375 L 1.796875 -17.21875 C 1.796875 -17.613281 1.992188 -17.8125 2.390625 -17.8125 L 6.09375 -17.8125 C 6.488281 -17.8125 6.6875 -17.613281 6.6875 -17.21875 L 6.6875 -16.15625 C 6.6875 -16.0625 6.707031 -16 6.75 -15.96875 C 6.800781 -15.945312 6.863281 -15.972656 6.9375 -16.046875 C 7.851562 -17.390625 9.097656 -18.0625 10.671875 -18.0625 Z M 10.671875 -18.0625 "/></g></g></g><g fill="#ffffff" fill-opacity="1"><g transform="translate(90.730566, 26.949551)"><g><path d="M 12.203125 -17.21875 C 12.203125 -17.613281 12.394531 -17.8125 12.78125 -17.8125 L 16.5 -17.8125 C 16.882812 -17.8125 17.078125 -17.613281 17.078125 -17.21875 L 17.078125 -0.59375 C 17.078125 -0.195312 16.882812 0 16.5 0 L 12.78125 0 C 12.394531 0 12.203125 -0.195312 12.203125 -0.59375 L 12.203125 -1.53125 C 12.203125 -1.613281 12.171875 -1.660156 12.109375 -1.671875 C 12.054688 -1.691406 12.003906 -1.664062 11.953125 -1.59375 C 11.054688 -0.363281 9.632812 0.25 7.6875 0.25 C 5.9375 0.25 4.492188 -0.28125 3.359375 -1.34375 C 2.222656 -2.414062 1.65625 -3.910156 1.65625 -5.828125 L 1.65625 -17.21875 C 1.65625 -17.613281 1.851562 -17.8125 2.25 -17.8125 L 5.921875 -17.8125 C 6.316406 -17.8125 6.515625 -17.613281 6.515625 -17.21875 L 6.515625 -7.03125 C 6.515625 -6.113281 6.757812 -5.363281 7.25 -4.78125 C 7.75 -4.207031 8.441406 -3.921875 9.328125 -3.921875 C 10.109375 -3.921875 10.753906 -4.15625 11.265625 -4.625 C 11.773438 -5.101562 12.085938 -5.722656 12.203125 -6.484375 Z M 12.203125 -17.21875 "/></g></g></g><g fill="#ffffff" fill-opacity="1"><g transform="translate(107.079558, 26.949551)"><g><path d="M 1.421875 0 C 1.023438 0 0.828125 -0.195312 0.828125 -0.59375 L 0.828125 -4.015625 C 0.828125 -4.296875 0.921875 -4.539062 1.109375 -4.75 L 8.796875 -13.171875 C 8.847656 -13.234375 8.867188 -13.285156 8.859375 -13.328125 C 8.847656 -13.378906 8.796875 -13.40625 8.703125 -13.40625 L 1.625 -13.40625 C 1.238281 -13.40625 1.046875 -13.601562 1.046875 -14 L 1.046875 -17.21875 C 1.046875 -17.613281 1.238281 -17.8125 1.625 -17.8125 L 14.25 -17.8125 C 14.632812 -17.8125 14.828125 -17.613281 14.828125 -17.21875 L 14.828125 -13.828125 C 14.828125 -13.546875 14.738281 -13.300781 14.5625 -13.09375 L 6.625 -4.671875 C 6.570312 -4.609375 6.550781 -4.550781 6.5625 -4.5 C 6.570312 -4.457031 6.625 -4.4375 6.71875 -4.4375 L 14.421875 -4.4375 C 14.804688 -4.4375 15 -4.238281 15 -3.84375 L 15 -0.59375 C 15 -0.195312 14.804688 0 14.421875 0 Z M 1.421875 0 "/></g></g></g><g fill="#ffffff" fill-opacity="1"><g transform="translate(17.60033, 52.81218)"><g/></g></g><g fill="#ffffff" fill-opacity="1"><g transform="translate(21.997667, 52.81218)"><g/></g></g><g fill="#ffffff" fill-opacity="1"><g transform="translate(26.395004, 52.81218)"><g/></g></g><g fill="#ffffff" fill-opacity="1"><g transform="translate(30.79234, 52.81218)"><g/></g></g><g fill="#ffffff" fill-opacity="1"><g transform="translate(35.189677, 52.81218)"><g/></g></g><g fill="#ffffff" fill-opacity="1"><g transform="translate(39.587014, 52.81218)"><g/></g></g><g fill="#ffffff" fill-opacity="1"><g transform="translate(43.984351, 52.81218)"><g/></g></g><g fill="#ffffff" fill-opacity="1"><g transform="translate(48.381689, 52.81218)"><g/></g></g><g fill="#ffffff" fill-opacity="1"><g transform="translate(52.794078, 52.81218)"><g><path d="M 12.546875 -23.671875 C 12.546875 -24.066406 12.742188 -24.265625 13.140625 -24.265625 L 16.84375 -24.265625 C 17.238281 -24.265625 17.4375 -24.066406 17.4375 -23.671875 L 17.4375 -0.59375 C 17.4375 -0.195312 17.238281 0 16.84375 0 L 13.140625 0 C 12.742188 0 12.546875 -0.195312 12.546875 -0.59375 L 12.546875 -1.53125 C 12.546875 -1.613281 12.515625 -1.660156 12.453125 -1.671875 C 12.398438 -1.691406 12.347656 -1.664062 12.296875 -1.59375 C 11.347656 -0.34375 10.035156 0.28125 8.359375 0.28125 C 6.785156 0.28125 5.390625 -0.1875 4.171875 -1.125 C 2.960938 -2.0625 2.125 -3.289062 1.65625 -4.8125 C 1.269531 -5.925781 1.078125 -7.3125 1.078125 -8.96875 C 1.078125 -10.6875 1.296875 -12.117188 1.734375 -13.265625 C 2.242188 -14.742188 3.082031 -15.921875 4.25 -16.796875 C 5.414062 -17.679688 6.785156 -18.125 8.359375 -18.125 C 10.066406 -18.125 11.378906 -17.554688 12.296875 -16.421875 C 12.347656 -16.359375 12.398438 -16.335938 12.453125 -16.359375 C 12.515625 -16.378906 12.546875 -16.4375 12.546875 -16.53125 Z M 11.8125 -5.46875 C 12.28125 -6.332031 12.515625 -7.476562 12.515625 -8.90625 C 12.515625 -10.425781 12.269531 -11.613281 11.78125 -12.46875 C 11.207031 -13.375 10.4375 -13.828125 9.46875 -13.828125 C 8.394531 -13.828125 7.582031 -13.390625 7.03125 -12.515625 C 6.476562 -11.585938 6.203125 -10.375 6.203125 -8.875 C 6.203125 -7.507812 6.445312 -6.375 6.9375 -5.46875 C 7.488281 -4.476562 8.332031 -3.984375 9.46875 -3.984375 C 10.476562 -3.984375 11.257812 -4.476562 11.8125 -5.46875 Z M 11.8125 -5.46875 "/></g></g></g><g fill="#ffffff" fill-opacity="1"><g transform="translate(69.558764, 52.81218)"><g><path d="M 2.28125 0 C 1.894531 0 1.703125 -0.195312 1.703125 -0.59375 L 1.703125 -17.21875 C 1.703125 -17.613281 1.894531 -17.8125 2.28125 -17.8125 L 6 -17.8125 C 6.382812 -17.8125 6.578125 -17.613281 6.578125 -17.21875 L 6.578125 -0.59375 C 6.578125 -0.195312 6.382812 0 6 0 Z M 4.015625 -19.953125 C 3.347656 -19.953125 2.804688 -20.160156 2.390625 -20.578125 C 1.972656 -20.992188 1.765625 -21.535156 1.765625 -22.203125 C 1.765625 -22.878906 1.972656 -23.425781 2.390625 -23.84375 C 2.804688 -24.257812 3.347656 -24.46875 4.015625 -24.46875 C 4.679688 -24.46875 5.21875 -24.257812 5.625 -23.84375 C 6.03125 -23.425781 6.234375 -22.878906 6.234375 -22.203125 C 6.234375 -21.535156 6.03125 -20.992188 5.625 -20.578125 C 5.21875 -20.160156 4.679688 -19.953125 4.015625 -19.953125 Z M 4.015625 -19.953125 "/></g></g></g><g clip-path="url(#f46a0d569c)"><g fill="#ffffff" fill-opacity="1"><g transform="translate(75.376455, 52.81218)"><g><path d="M 12.6875 -17.21875 C 12.6875 -17.613281 12.878906 -17.8125 13.265625 -17.8125 L 16.984375 -17.8125 C 17.378906 -17.8125 17.578125 -17.613281 17.578125 -17.21875 L 17.578125 -1.59375 C 17.578125 1.4375 16.707031 3.597656 14.96875 4.890625 C 13.238281 6.179688 11.007812 6.828125 8.28125 6.828125 C 7.519531 6.828125 6.65625 6.769531 5.6875 6.65625 C 5.332031 6.632812 5.15625 6.425781 5.15625 6.03125 L 5.296875 2.8125 C 5.296875 2.625 5.359375 2.476562 5.484375 2.375 C 5.617188 2.269531 5.773438 2.238281 5.953125 2.28125 C 6.816406 2.394531 7.523438 2.453125 8.078125 2.453125 C 9.554688 2.453125 10.691406 2.128906 11.484375 1.484375 C 12.285156 0.835938 12.6875 -0.195312 12.6875 -1.625 C 12.6875 -1.695312 12.660156 -1.738281 12.609375 -1.75 C 12.566406 -1.757812 12.507812 -1.726562 12.4375 -1.65625 C 11.582031 -0.738281 10.3125 -0.28125 8.625 -0.28125 C 7.125 -0.28125 5.742188 -0.640625 4.484375 -1.359375 C 3.222656 -2.085938 2.328125 -3.265625 1.796875 -4.890625 C 1.453125 -5.953125 1.28125 -7.328125 1.28125 -9.015625 C 1.28125 -10.816406 1.488281 -12.28125 1.90625 -13.40625 C 2.394531 -14.820312 3.210938 -15.957031 4.359375 -16.8125 C 5.515625 -17.664062 6.859375 -18.09375 8.390625 -18.09375 C 10.117188 -18.09375 11.46875 -17.570312 12.4375 -16.53125 C 12.507812 -16.457031 12.566406 -16.429688 12.609375 -16.453125 C 12.660156 -16.484375 12.6875 -16.546875 12.6875 -16.640625 Z M 12.40625 -6.203125 C 12.59375 -6.898438 12.6875 -7.847656 12.6875 -9.046875 C 12.6875 -9.765625 12.660156 -10.316406 12.609375 -10.703125 C 12.566406 -11.097656 12.488281 -11.46875 12.375 -11.8125 C 12.164062 -12.4375 11.816406 -12.9375 11.328125 -13.3125 C 10.847656 -13.695312 10.25 -13.890625 9.53125 -13.890625 C 8.832031 -13.890625 8.238281 -13.695312 7.75 -13.3125 C 7.269531 -12.9375 6.914062 -12.4375 6.6875 -11.8125 C 6.363281 -11.125 6.203125 -10.191406 6.203125 -9.015625 C 6.203125 -7.710938 6.34375 -6.785156 6.625 -6.234375 C 6.832031 -5.609375 7.191406 -5.101562 7.703125 -4.71875 C 8.222656 -4.34375 8.84375 -4.15625 9.5625 -4.15625 C 10.300781 -4.15625 10.910156 -4.34375 11.390625 -4.71875 C 11.878906 -5.101562 12.21875 -5.597656 12.40625 -6.203125 Z M 12.40625 -6.203125 "/></g></g></g></g><g fill="#ffffff" fill-opacity="1"><g transform="translate(92.106524, 52.81218)"><g><path d="M 2.28125 0 C 1.894531 0 1.703125 -0.195312 1.703125 -0.59375 L 1.703125 -17.21875 C 1.703125 -17.613281 1.894531 -17.8125 2.28125 -17.8125 L 6 -17.8125 C 6.382812 -17.8125 6.578125 -17.613281 6.578125 -17.21875 L 6.578125 -0.59375 C 6.578125 -0.195312 6.382812 0 6 0 Z M 4.015625 -19.953125 C 3.347656 -19.953125 2.804688 -20.160156 2.390625 -20.578125 C 1.972656 -20.992188 1.765625 -21.535156 1.765625 -22.203125 C 1.765625 -22.878906 1.972656 -23.425781 2.390625 -23.84375 C 2.804688 -24.257812 3.347656 -24.46875 4.015625 -24.46875 C 4.679688 -24.46875 5.21875 -24.257812 5.625 -23.84375 C 6.03125 -23.425781 6.234375 -22.878906 6.234375 -22.203125 C 6.234375 -21.535156 6.03125 -20.992188 5.625 -20.578125 C 5.21875 -20.160156 4.679688 -19.953125 4.015625 -19.953125 Z M 4.015625 -19.953125 "/></g></g></g><g fill="#ffffff" fill-opacity="1"><g transform="translate(97.924212, 52.81218)"><g><path d="M 12.03125 -14.484375 C 12.03125 -14.085938 11.832031 -13.890625 11.4375 -13.890625 L 8.3125 -13.890625 C 8.175781 -13.890625 8.109375 -13.820312 8.109375 -13.6875 L 8.109375 -6.515625 C 8.109375 -5.753906 8.265625 -5.191406 8.578125 -4.828125 C 8.890625 -4.472656 9.390625 -4.296875 10.078125 -4.296875 L 11.0625 -4.296875 C 11.445312 -4.296875 11.640625 -4.097656 11.640625 -3.703125 L 11.640625 -0.734375 C 11.640625 -0.359375 11.445312 -0.148438 11.0625 -0.109375 C 10.175781 -0.0546875 9.539062 -0.03125 9.15625 -0.03125 C 7.226562 -0.03125 5.789062 -0.351562 4.84375 -1 C 3.90625 -1.644531 3.421875 -2.847656 3.390625 -4.609375 L 3.390625 -13.6875 C 3.390625 -13.820312 3.320312 -13.890625 3.1875 -13.890625 L 1.421875 -13.890625 C 1.023438 -13.890625 0.828125 -14.085938 0.828125 -14.484375 L 0.828125 -17.21875 C 0.828125 -17.613281 1.023438 -17.8125 1.421875 -17.8125 L 3.1875 -17.8125 C 3.320312 -17.8125 3.390625 -17.878906 3.390625 -18.015625 L 3.390625 -21.9375 C 3.390625 -22.332031 3.585938 -22.53125 3.984375 -22.53125 L 7.515625 -22.53125 C 7.910156 -22.53125 8.109375 -22.332031 8.109375 -21.9375 L 8.109375 -18.015625 C 8.109375 -17.878906 8.175781 -17.8125 8.3125 -17.8125 L 11.4375 -17.8125 C 11.832031 -17.8125 12.03125 -17.613281 12.03125 -17.21875 Z M 12.03125 -14.484375 "/></g></g></g><g fill="#ffffff" fill-opacity="1"><g transform="translate(108.557206, 52.81218)"><g><path d="M 8.9375 -18.09375 C 10.4375 -18.09375 11.773438 -17.832031 12.953125 -17.3125 C 14.140625 -16.789062 15.0625 -16.078125 15.71875 -15.171875 C 16.375 -14.273438 16.703125 -13.273438 16.703125 -12.171875 L 16.703125 -0.59375 C 16.703125 -0.195312 16.503906 0 16.109375 0 L 12.40625 0 C 12.007812 0 11.8125 -0.195312 11.8125 -0.59375 L 11.8125 -1.421875 C 11.8125 -1.515625 11.785156 -1.566406 11.734375 -1.578125 C 11.691406 -1.585938 11.640625 -1.554688 11.578125 -1.484375 C 10.515625 -0.304688 8.929688 0.28125 6.828125 0.28125 C 5.046875 0.28125 3.613281 -0.15625 2.53125 -1.03125 C 1.445312 -1.914062 0.90625 -3.210938 0.90625 -4.921875 C 0.90625 -6.703125 1.523438 -8.082031 2.765625 -9.0625 C 4.015625 -10.039062 5.796875 -10.53125 8.109375 -10.53125 L 11.609375 -10.53125 C 11.742188 -10.53125 11.8125 -10.601562 11.8125 -10.75 L 11.8125 -11.46875 C 11.8125 -12.226562 11.570312 -12.820312 11.09375 -13.25 C 10.625 -13.675781 9.941406 -13.890625 9.046875 -13.890625 C 8.347656 -13.890625 7.773438 -13.773438 7.328125 -13.546875 C 6.878906 -13.316406 6.570312 -12.992188 6.40625 -12.578125 C 6.269531 -12.253906 6.039062 -12.101562 5.71875 -12.125 L 1.875 -12.609375 C 1.6875 -12.640625 1.539062 -12.691406 1.4375 -12.765625 C 1.332031 -12.847656 1.289062 -12.957031 1.3125 -13.09375 C 1.425781 -14.039062 1.820312 -14.894531 2.5 -15.65625 C 3.1875 -16.425781 4.085938 -17.023438 5.203125 -17.453125 C 6.328125 -17.878906 7.570312 -18.09375 8.9375 -18.09375 Z M 8.25 -3.359375 C 9.238281 -3.359375 10.078125 -3.625 10.765625 -4.15625 C 11.460938 -4.6875 11.8125 -5.367188 11.8125 -6.203125 L 11.8125 -7.421875 C 11.8125 -7.554688 11.742188 -7.625 11.609375 -7.625 L 9.15625 -7.625 C 8.113281 -7.625 7.289062 -7.425781 6.6875 -7.03125 C 6.082031 -6.644531 5.78125 -6.09375 5.78125 -5.375 C 5.78125 -4.75 6.003906 -4.253906 6.453125 -3.890625 C 6.910156 -3.535156 7.507812 -3.359375 8.25 -3.359375 Z M 8.25 -3.359375 "/></g></g></g><g fill="#ffffff" fill-opacity="1"><g transform="translate(124.317263, 52.81218)"><g><path d="M 2.453125 0 C 2.066406 0 1.875 -0.195312 1.875 -0.59375 L 1.875 -23.671875 C 1.875 -24.066406 2.066406 -24.265625 2.453125 -24.265625 L 6.171875 -24.265625 C 6.566406 -24.265625 6.765625 -24.066406 6.765625 -23.671875 L 6.765625 -0.59375 C 6.765625 -0.195312 6.566406 0 6.171875 0 Z M 2.453125 0 "/></g></g></g></svg>
