<svg xmlns="http://www.w3.org/2000/svg" xmlns:xlink="http://www.w3.org/1999/xlink" width="120" zoomAndPan="magnify" viewBox="0 0 90 30.000001" height="40" preserveAspectRatio="xMidYMid meet" version="1.0"><defs><g/></defs><g fill="#313f51" fill-opacity="1"><g transform="translate(35.687412, 16.07313)"><g><path d="M 0.53125 0 C 0.445312 0 0.40625 -0.0351562 0.40625 -0.109375 L 0.40625 -4.609375 C 0.40625 -4.679688 0.445312 -4.71875 0.53125 -4.71875 L 1.21875 -4.71875 C 1.28125 -4.71875 1.328125 -4.695312 1.359375 -4.65625 L 3.046875 -1.84375 C 3.054688 -1.820312 3.066406 -1.8125 3.078125 -1.8125 C 3.085938 -1.820312 3.09375 -1.835938 3.09375 -1.859375 L 3.09375 -4.609375 C 3.09375 -4.679688 3.128906 -4.71875 3.203125 -4.71875 L 3.921875 -4.71875 C 3.992188 -4.71875 4.03125 -4.679688 4.03125 -4.609375 L 4.03125 -0.109375 C 4.03125 -0.0351562 3.992188 0 3.921875 0 L 3.21875 0 C 3.164062 0 3.125 -0.0234375 3.09375 -0.078125 L 1.390625 -2.921875 C 1.390625 -2.929688 1.378906 -2.929688 1.359375 -2.921875 C 1.347656 -2.921875 1.34375 -2.914062 1.34375 -2.90625 L 1.359375 -0.109375 C 1.359375 -0.0351562 1.316406 0 1.234375 0 Z M 0.53125 0 "/></g></g></g><g fill="#313f51" fill-opacity="1"><g transform="translate(39.635667, 16.07313)"><g><path d="M 1.890625 0.046875 C 1.503906 0.046875 1.175781 -0.0507812 0.90625 -0.25 C 0.632812 -0.445312 0.453125 -0.710938 0.359375 -1.046875 C 0.296875 -1.265625 0.265625 -1.492188 0.265625 -1.734375 C 0.265625 -2.015625 0.296875 -2.253906 0.359375 -2.453125 C 0.460938 -2.785156 0.648438 -3.046875 0.921875 -3.234375 C 1.191406 -3.429688 1.515625 -3.53125 1.890625 -3.53125 C 2.265625 -3.53125 2.582031 -3.429688 2.84375 -3.234375 C 3.101562 -3.046875 3.285156 -2.789062 3.390625 -2.46875 C 3.460938 -2.257812 3.5 -2.019531 3.5 -1.75 C 3.5 -1.519531 3.46875 -1.296875 3.40625 -1.078125 C 3.300781 -0.722656 3.113281 -0.445312 2.84375 -0.25 C 2.582031 -0.0507812 2.265625 0.046875 1.890625 0.046875 Z M 1.890625 -0.765625 C 2.035156 -0.765625 2.160156 -0.804688 2.265625 -0.890625 C 2.367188 -0.984375 2.441406 -1.109375 2.484375 -1.265625 C 2.515625 -1.390625 2.53125 -1.546875 2.53125 -1.734375 C 2.53125 -1.929688 2.515625 -2.09375 2.484375 -2.21875 C 2.441406 -2.375 2.367188 -2.492188 2.265625 -2.578125 C 2.160156 -2.660156 2.03125 -2.703125 1.875 -2.703125 C 1.726562 -2.703125 1.601562 -2.660156 1.5 -2.578125 C 1.394531 -2.492188 1.320312 -2.375 1.28125 -2.21875 C 1.238281 -2.09375 1.21875 -1.929688 1.21875 -1.734375 C 1.21875 -1.554688 1.238281 -1.398438 1.28125 -1.265625 C 1.320312 -1.109375 1.394531 -0.984375 1.5 -0.890625 C 1.601562 -0.804688 1.734375 -0.765625 1.890625 -0.765625 Z M 1.890625 -0.765625 "/></g></g></g><g fill="#313f51" fill-opacity="1"><g transform="translate(42.902182, 16.07313)"><g><path d="M 1.34375 0 C 1.28125 0 1.238281 -0.03125 1.21875 -0.09375 L 0.171875 -3.34375 C 0.160156 -3.351562 0.15625 -3.363281 0.15625 -3.375 C 0.15625 -3.40625 0.164062 -3.425781 0.1875 -3.4375 C 0.207031 -3.457031 0.234375 -3.46875 0.265625 -3.46875 L 1.0625 -3.46875 C 1.125 -3.46875 1.164062 -3.4375 1.1875 -3.375 L 1.734375 -1.34375 C 1.734375 -1.320312 1.738281 -1.3125 1.75 -1.3125 C 1.769531 -1.3125 1.78125 -1.320312 1.78125 -1.34375 L 2.328125 -3.375 C 2.347656 -3.4375 2.390625 -3.46875 2.453125 -3.46875 L 3.25 -3.46875 C 3.289062 -3.46875 3.316406 -3.453125 3.328125 -3.421875 C 3.347656 -3.398438 3.351562 -3.367188 3.34375 -3.328125 L 2.296875 -0.09375 C 2.273438 -0.03125 2.234375 0 2.171875 0 Z M 1.34375 0 "/></g></g></g><g fill="#313f51" fill-opacity="1"><g transform="translate(45.918952, 16.07313)"><g><path d="M 2.078125 -3.515625 C 2.222656 -3.515625 2.34375 -3.488281 2.4375 -3.4375 C 2.488281 -3.40625 2.507812 -3.359375 2.5 -3.296875 L 2.375 -2.578125 C 2.363281 -2.546875 2.347656 -2.523438 2.328125 -2.515625 C 2.304688 -2.503906 2.273438 -2.503906 2.234375 -2.515625 C 2.160156 -2.523438 2.09375 -2.53125 2.03125 -2.53125 C 2 -2.53125 1.953125 -2.53125 1.890625 -2.53125 C 1.722656 -2.507812 1.582031 -2.445312 1.46875 -2.34375 C 1.351562 -2.238281 1.296875 -2.097656 1.296875 -1.921875 L 1.296875 -0.109375 C 1.296875 -0.0351562 1.257812 0 1.1875 0 L 0.46875 0 C 0.382812 0 0.34375 -0.0351562 0.34375 -0.109375 L 0.34375 -3.359375 C 0.34375 -3.429688 0.382812 -3.46875 0.46875 -3.46875 L 1.1875 -3.46875 C 1.257812 -3.46875 1.296875 -3.429688 1.296875 -3.359375 L 1.296875 -3.140625 C 1.296875 -3.128906 1.300781 -3.117188 1.3125 -3.109375 C 1.320312 -3.109375 1.332031 -3.113281 1.34375 -3.125 C 1.53125 -3.382812 1.773438 -3.515625 2.078125 -3.515625 Z M 2.078125 -3.515625 "/></g></g></g><g fill="#313f51" fill-opacity="1"><g transform="translate(48.010981, 16.07313)"><g><path d="M 2.375 -3.359375 C 2.375 -3.429688 2.410156 -3.46875 2.484375 -3.46875 L 3.21875 -3.46875 C 3.289062 -3.46875 3.328125 -3.429688 3.328125 -3.359375 L 3.328125 -0.109375 C 3.328125 -0.0351562 3.289062 0 3.21875 0 L 2.484375 0 C 2.410156 0 2.375 -0.0351562 2.375 -0.109375 L 2.375 -0.296875 C 2.375 -0.316406 2.367188 -0.328125 2.359375 -0.328125 C 2.347656 -0.328125 2.335938 -0.320312 2.328125 -0.3125 C 2.148438 -0.0703125 1.875 0.046875 1.5 0.046875 C 1.15625 0.046875 0.875 -0.0546875 0.65625 -0.265625 C 0.4375 -0.472656 0.328125 -0.765625 0.328125 -1.140625 L 0.328125 -3.359375 C 0.328125 -3.429688 0.363281 -3.46875 0.4375 -3.46875 L 1.15625 -3.46875 C 1.226562 -3.46875 1.265625 -3.429688 1.265625 -3.359375 L 1.265625 -1.375 C 1.265625 -1.1875 1.3125 -1.035156 1.40625 -0.921875 C 1.507812 -0.816406 1.644531 -0.765625 1.8125 -0.765625 C 1.96875 -0.765625 2.09375 -0.8125 2.1875 -0.90625 C 2.289062 -1 2.351562 -1.117188 2.375 -1.265625 Z M 2.375 -3.359375 "/></g></g></g><g fill="#313f51" fill-opacity="1"><g transform="translate(51.196501, 16.07313)"><g><path d="M 0.28125 0 C 0.195312 0 0.15625 -0.0351562 0.15625 -0.109375 L 0.15625 -0.78125 C 0.15625 -0.832031 0.175781 -0.878906 0.21875 -0.921875 L 1.71875 -2.5625 C 1.726562 -2.570312 1.726562 -2.582031 1.71875 -2.59375 C 1.71875 -2.601562 1.707031 -2.609375 1.6875 -2.609375 L 0.3125 -2.609375 C 0.238281 -2.609375 0.203125 -2.648438 0.203125 -2.734375 L 0.203125 -3.359375 C 0.203125 -3.429688 0.238281 -3.46875 0.3125 -3.46875 L 2.78125 -3.46875 C 2.851562 -3.46875 2.890625 -3.429688 2.890625 -3.359375 L 2.890625 -2.6875 C 2.890625 -2.632812 2.867188 -2.585938 2.828125 -2.546875 L 1.296875 -0.90625 C 1.285156 -0.894531 1.28125 -0.882812 1.28125 -0.875 C 1.28125 -0.863281 1.289062 -0.859375 1.3125 -0.859375 L 2.8125 -0.859375 C 2.882812 -0.859375 2.921875 -0.820312 2.921875 -0.75 L 2.921875 -0.109375 C 2.921875 -0.0351562 2.882812 0 2.8125 0 Z M 0.28125 0 "/></g></g></g><g fill="#313f51" fill-opacity="1"><g transform="translate(33.76192, 21.112334)"><g/></g></g><g fill="#313f51" fill-opacity="1"><g transform="translate(34.61872, 21.112334)"><g/></g></g><g fill="#313f51" fill-opacity="1"><g transform="translate(35.475519, 21.112334)"><g/></g></g><g fill="#313f51" fill-opacity="1"><g transform="translate(36.332318, 21.112334)"><g/></g></g><g fill="#313f51" fill-opacity="1"><g transform="translate(37.189117, 21.112334)"><g/></g></g><g fill="#313f51" fill-opacity="1"><g transform="translate(38.045916, 21.112334)"><g/></g></g><g fill="#313f51" fill-opacity="1"><g transform="translate(38.902715, 21.112334)"><g/></g></g><g fill="#313f51" fill-opacity="1"><g transform="translate(39.759514, 21.112334)"><g/></g></g><g fill="#313f51" fill-opacity="1"><g transform="translate(40.619246, 21.112334)"><g><path d="M 2.4375 -4.609375 C 2.4375 -4.679688 2.476562 -4.71875 2.5625 -4.71875 L 3.28125 -4.71875 C 3.351562 -4.71875 3.390625 -4.679688 3.390625 -4.609375 L 3.390625 -0.109375 C 3.390625 -0.0351562 3.351562 0 3.28125 0 L 2.5625 0 C 2.476562 0 2.4375 -0.0351562 2.4375 -0.109375 L 2.4375 -0.296875 C 2.4375 -0.316406 2.429688 -0.328125 2.421875 -0.328125 C 2.410156 -0.328125 2.398438 -0.320312 2.390625 -0.3125 C 2.210938 -0.0703125 1.957031 0.046875 1.625 0.046875 C 1.320312 0.046875 1.050781 -0.0390625 0.8125 -0.21875 C 0.570312 -0.40625 0.410156 -0.644531 0.328125 -0.9375 C 0.242188 -1.15625 0.203125 -1.425781 0.203125 -1.75 C 0.203125 -2.082031 0.25 -2.359375 0.34375 -2.578125 C 0.4375 -2.867188 0.597656 -3.097656 0.828125 -3.265625 C 1.054688 -3.441406 1.320312 -3.53125 1.625 -3.53125 C 1.957031 -3.53125 2.210938 -3.421875 2.390625 -3.203125 C 2.398438 -3.179688 2.410156 -3.171875 2.421875 -3.171875 C 2.429688 -3.179688 2.4375 -3.195312 2.4375 -3.21875 Z M 2.296875 -1.0625 C 2.390625 -1.226562 2.4375 -1.453125 2.4375 -1.734375 C 2.4375 -2.035156 2.390625 -2.269531 2.296875 -2.4375 C 2.179688 -2.601562 2.03125 -2.6875 1.84375 -2.6875 C 1.632812 -2.6875 1.476562 -2.601562 1.375 -2.4375 C 1.257812 -2.257812 1.203125 -2.023438 1.203125 -1.734375 C 1.203125 -1.460938 1.25 -1.238281 1.34375 -1.0625 C 1.457031 -0.875 1.625 -0.78125 1.84375 -0.78125 C 2.039062 -0.78125 2.191406 -0.875 2.296875 -1.0625 Z M 2.296875 -1.0625 "/></g></g></g><g fill="#313f51" fill-opacity="1"><g transform="translate(43.885762, 21.112334)"><g><path d="M 0.453125 0 C 0.367188 0 0.328125 -0.0351562 0.328125 -0.109375 L 0.328125 -3.359375 C 0.328125 -3.429688 0.367188 -3.46875 0.453125 -3.46875 L 1.171875 -3.46875 C 1.242188 -3.46875 1.28125 -3.429688 1.28125 -3.359375 L 1.28125 -0.109375 C 1.28125 -0.0351562 1.242188 0 1.171875 0 Z M 0.78125 -3.890625 C 0.65625 -3.890625 0.550781 -3.929688 0.46875 -4.015625 C 0.382812 -4.097656 0.34375 -4.203125 0.34375 -4.328125 C 0.34375 -4.460938 0.382812 -4.566406 0.46875 -4.640625 C 0.550781 -4.722656 0.65625 -4.765625 0.78125 -4.765625 C 0.914062 -4.765625 1.019531 -4.722656 1.09375 -4.640625 C 1.175781 -4.566406 1.21875 -4.460938 1.21875 -4.328125 C 1.21875 -4.203125 1.175781 -4.097656 1.09375 -4.015625 C 1.019531 -3.929688 0.914062 -3.890625 0.78125 -3.890625 Z M 0.78125 -3.890625 "/></g></g></g><g fill="#313f51" fill-opacity="1"><g transform="translate(45.01931, 21.112334)"><g><path d="M 2.46875 -3.359375 C 2.46875 -3.429688 2.503906 -3.46875 2.578125 -3.46875 L 3.3125 -3.46875 C 3.382812 -3.46875 3.421875 -3.429688 3.421875 -3.359375 L 3.421875 -0.3125 C 3.421875 0.28125 3.25 0.703125 2.90625 0.953125 C 2.570312 1.203125 2.140625 1.328125 1.609375 1.328125 C 1.460938 1.328125 1.296875 1.316406 1.109375 1.296875 C 1.035156 1.296875 1 1.253906 1 1.171875 L 1.03125 0.546875 C 1.03125 0.515625 1.039062 0.488281 1.0625 0.46875 C 1.09375 0.445312 1.125 0.441406 1.15625 0.453125 C 1.320312 0.472656 1.460938 0.484375 1.578125 0.484375 C 1.859375 0.484375 2.078125 0.414062 2.234375 0.28125 C 2.390625 0.15625 2.46875 -0.0390625 2.46875 -0.3125 C 2.46875 -0.332031 2.460938 -0.34375 2.453125 -0.34375 C 2.441406 -0.34375 2.429688 -0.335938 2.421875 -0.328125 C 2.253906 -0.140625 2.007812 -0.046875 1.6875 -0.046875 C 1.382812 -0.046875 1.109375 -0.117188 0.859375 -0.265625 C 0.617188 -0.410156 0.445312 -0.640625 0.34375 -0.953125 C 0.28125 -1.160156 0.25 -1.425781 0.25 -1.75 C 0.25 -2.101562 0.289062 -2.390625 0.375 -2.609375 C 0.46875 -2.890625 0.625 -3.113281 0.84375 -3.28125 C 1.070312 -3.445312 1.335938 -3.53125 1.640625 -3.53125 C 1.972656 -3.53125 2.234375 -3.425781 2.421875 -3.21875 C 2.429688 -3.207031 2.441406 -3.203125 2.453125 -3.203125 C 2.460938 -3.210938 2.46875 -3.222656 2.46875 -3.234375 Z M 2.421875 -1.203125 C 2.453125 -1.335938 2.46875 -1.523438 2.46875 -1.765625 C 2.46875 -1.898438 2.460938 -2.003906 2.453125 -2.078125 C 2.441406 -2.160156 2.425781 -2.234375 2.40625 -2.296875 C 2.363281 -2.421875 2.296875 -2.519531 2.203125 -2.59375 C 2.109375 -2.664062 1.992188 -2.703125 1.859375 -2.703125 C 1.722656 -2.703125 1.609375 -2.664062 1.515625 -2.59375 C 1.421875 -2.519531 1.347656 -2.421875 1.296875 -2.296875 C 1.234375 -2.160156 1.203125 -1.976562 1.203125 -1.75 C 1.203125 -1.5 1.234375 -1.320312 1.296875 -1.21875 C 1.328125 -1.09375 1.394531 -0.992188 1.5 -0.921875 C 1.601562 -0.847656 1.722656 -0.8125 1.859375 -0.8125 C 2.003906 -0.8125 2.125 -0.847656 2.21875 -0.921875 C 2.3125 -0.992188 2.378906 -1.085938 2.421875 -1.203125 Z M 2.421875 -1.203125 "/></g></g></g><g fill="#313f51" fill-opacity="1"><g transform="translate(48.27908, 21.112334)"><g><path d="M 0.453125 0 C 0.367188 0 0.328125 -0.0351562 0.328125 -0.109375 L 0.328125 -3.359375 C 0.328125 -3.429688 0.367188 -3.46875 0.453125 -3.46875 L 1.171875 -3.46875 C 1.242188 -3.46875 1.28125 -3.429688 1.28125 -3.359375 L 1.28125 -0.109375 C 1.28125 -0.0351562 1.242188 0 1.171875 0 Z M 0.78125 -3.890625 C 0.65625 -3.890625 0.550781 -3.929688 0.46875 -4.015625 C 0.382812 -4.097656 0.34375 -4.203125 0.34375 -4.328125 C 0.34375 -4.460938 0.382812 -4.566406 0.46875 -4.640625 C 0.550781 -4.722656 0.65625 -4.765625 0.78125 -4.765625 C 0.914062 -4.765625 1.019531 -4.722656 1.09375 -4.640625 C 1.175781 -4.566406 1.21875 -4.460938 1.21875 -4.328125 C 1.21875 -4.203125 1.175781 -4.097656 1.09375 -4.015625 C 1.019531 -3.929688 0.914062 -3.890625 0.78125 -3.890625 Z M 0.78125 -3.890625 "/></g></g></g><g fill="#313f51" fill-opacity="1"><g transform="translate(49.412627, 21.112334)"><g><path d="M 2.34375 -2.828125 C 2.34375 -2.742188 2.304688 -2.703125 2.234375 -2.703125 L 1.625 -2.703125 C 1.59375 -2.703125 1.578125 -2.691406 1.578125 -2.671875 L 1.578125 -1.265625 C 1.578125 -1.117188 1.609375 -1.007812 1.671875 -0.9375 C 1.734375 -0.875 1.832031 -0.84375 1.96875 -0.84375 L 2.15625 -0.84375 C 2.226562 -0.84375 2.265625 -0.800781 2.265625 -0.71875 L 2.265625 -0.140625 C 2.265625 -0.0664062 2.226562 -0.0234375 2.15625 -0.015625 C 1.976562 -0.00390625 1.851562 0 1.78125 0 C 1.40625 0 1.125 -0.0625 0.9375 -0.1875 C 0.757812 -0.320312 0.664062 -0.554688 0.65625 -0.890625 L 0.65625 -2.671875 C 0.65625 -2.691406 0.644531 -2.703125 0.625 -2.703125 L 0.28125 -2.703125 C 0.195312 -2.703125 0.15625 -2.742188 0.15625 -2.828125 L 0.15625 -3.359375 C 0.15625 -3.429688 0.195312 -3.46875 0.28125 -3.46875 L 0.625 -3.46875 C 0.644531 -3.46875 0.65625 -3.484375 0.65625 -3.515625 L 0.65625 -4.265625 C 0.65625 -4.347656 0.695312 -4.390625 0.78125 -4.390625 L 1.46875 -4.390625 C 1.539062 -4.390625 1.578125 -4.347656 1.578125 -4.265625 L 1.578125 -3.515625 C 1.578125 -3.484375 1.59375 -3.46875 1.625 -3.46875 L 2.234375 -3.46875 C 2.304688 -3.46875 2.34375 -3.429688 2.34375 -3.359375 Z M 2.34375 -2.828125 "/></g></g></g><g fill="#313f51" fill-opacity="1"><g transform="translate(51.484413, 21.112334)"><g><path d="M 1.734375 -3.53125 C 2.035156 -3.53125 2.300781 -3.476562 2.53125 -3.375 C 2.757812 -3.269531 2.9375 -3.128906 3.0625 -2.953125 C 3.1875 -2.773438 3.25 -2.582031 3.25 -2.375 L 3.25 -0.109375 C 3.25 -0.0351562 3.210938 0 3.140625 0 L 2.421875 0 C 2.335938 0 2.296875 -0.0351562 2.296875 -0.109375 L 2.296875 -0.28125 C 2.296875 -0.289062 2.289062 -0.296875 2.28125 -0.296875 C 2.28125 -0.304688 2.269531 -0.304688 2.25 -0.296875 C 2.039062 -0.0664062 1.734375 0.046875 1.328125 0.046875 C 0.984375 0.046875 0.703125 -0.0351562 0.484375 -0.203125 C 0.273438 -0.367188 0.171875 -0.617188 0.171875 -0.953125 C 0.171875 -1.304688 0.289062 -1.578125 0.53125 -1.765625 C 0.78125 -1.953125 1.128906 -2.046875 1.578125 -2.046875 L 2.265625 -2.046875 C 2.285156 -2.046875 2.296875 -2.0625 2.296875 -2.09375 L 2.296875 -2.234375 C 2.296875 -2.378906 2.25 -2.492188 2.15625 -2.578125 C 2.070312 -2.660156 1.941406 -2.703125 1.765625 -2.703125 C 1.628906 -2.703125 1.515625 -2.679688 1.421875 -2.640625 C 1.335938 -2.597656 1.28125 -2.535156 1.25 -2.453125 C 1.21875 -2.390625 1.171875 -2.359375 1.109375 -2.359375 L 0.359375 -2.453125 C 0.328125 -2.460938 0.300781 -2.472656 0.28125 -2.484375 C 0.257812 -2.503906 0.25 -2.523438 0.25 -2.546875 C 0.28125 -2.734375 0.359375 -2.898438 0.484375 -3.046875 C 0.617188 -3.203125 0.796875 -3.320312 1.015625 -3.40625 C 1.234375 -3.488281 1.472656 -3.53125 1.734375 -3.53125 Z M 1.609375 -0.65625 C 1.796875 -0.65625 1.957031 -0.707031 2.09375 -0.8125 C 2.226562 -0.914062 2.296875 -1.046875 2.296875 -1.203125 L 2.296875 -1.4375 C 2.296875 -1.46875 2.285156 -1.484375 2.265625 -1.484375 L 1.78125 -1.484375 C 1.582031 -1.484375 1.421875 -1.441406 1.296875 -1.359375 C 1.179688 -1.285156 1.125 -1.179688 1.125 -1.046875 C 1.125 -0.921875 1.164062 -0.820312 1.25 -0.75 C 1.34375 -0.6875 1.460938 -0.65625 1.609375 -0.65625 Z M 1.609375 -0.65625 "/></g></g></g><g fill="#313f51" fill-opacity="1"><g transform="translate(54.555181, 21.112334)"><g><path d="M 0.484375 0 C 0.398438 0 0.359375 -0.0351562 0.359375 -0.109375 L 0.359375 -4.609375 C 0.359375 -4.679688 0.398438 -4.71875 0.484375 -4.71875 L 1.203125 -4.71875 C 1.273438 -4.71875 1.3125 -4.679688 1.3125 -4.609375 L 1.3125 -0.109375 C 1.3125 -0.0351562 1.273438 0 1.203125 0 Z M 0.484375 0 "/></g></g></g></svg>
