<svg xmlns="http://www.w3.org/2000/svg" xmlns:xlink="http://www.w3.org/1999/xlink" width="500" zoomAndPan="magnify" viewBox="0 0 375 374.999991" height="500" preserveAspectRatio="xMidYMid meet" version="1.0"><defs><clipPath id="7fb70e2974"><path d="M 172.21875 117 L 227.828125 117 L 227.828125 202 L 172.21875 202 Z M 172.21875 117 " clip-rule="nonzero"/></clipPath></defs><path fill="#ffffff" d="M 15.933594 90.828125 C 14.585938 90.828125 13.933594 90.167969 13.933594 88.820312 L 13.933594 10.761719 C 13.933594 9.421875 14.585938 8.753906 15.933594 8.753906 L 27.949219 8.753906 C 28.964844 8.753906 29.757812 9.199219 30.324219 10.074219 L 59.527344 58.804688 C 59.691406 59.117188 59.863281 59.25 60.054688 59.167969 C 60.261719 59.101562 60.367188 58.902344 60.367188 58.589844 L 60.367188 10.761719 C 60.367188 9.421875 61.027344 8.753906 62.367188 8.753906 L 74.597656 8.753906 C 75.925781 8.753906 76.601562 9.421875 76.601562 10.761719 L 76.601562 88.820312 C 76.601562 90.167969 75.925781 90.828125 74.597656 90.828125 L 62.6875 90.828125 C 61.761719 90.828125 60.996094 90.347656 60.367188 89.398438 L 31.011719 40.199219 C 30.863281 39.878906 30.6875 39.761719 30.484375 39.828125 C 30.292969 39.910156 30.21875 40.09375 30.21875 40.40625 L 30.324219 88.820312 C 30.324219 90.167969 29.648438 90.828125 28.320312 90.828125 Z M 15.933594 90.828125 " fill-opacity="1" fill-rule="nonzero"/><path fill="#ffffff" d="M 107.898438 91.777344 C 101.285156 91.777344 95.628906 90.078125 90.929688 86.648438 C 86.246094 83.207031 83.078125 78.5 81.390625 72.546875 C 80.292969 68.878906 79.757812 64.90625 79.757812 60.597656 C 79.757812 55.816406 80.335938 51.667969 81.492188 48.175781 C 83.28125 42.40625 86.503906 37.871094 91.136719 34.59375 C 95.777344 31.289062 101.390625 29.628906 108.007812 29.628906 C 114.398438 29.628906 119.882812 31.289062 124.449219 34.59375 C 129.007812 37.871094 132.203125 42.355469 133.996094 48.019531 C 135.152344 51.613281 135.730469 55.722656 135.730469 60.332031 C 135.730469 64.429688 135.214844 68.367188 134.199219 72.175781 C 132.410156 78.277344 129.195312 83.058594 124.554688 86.550781 C 119.914062 90.035156 114.355469 91.777344 107.898438 91.777344 Z M 107.898438 77.566406 C 110.394531 77.566406 112.539062 76.796875 114.332031 75.238281 C 116.125 73.691406 117.40625 71.539062 118.179688 68.789062 C 118.808594 66.675781 119.128906 63.957031 119.128906 60.597656 C 119.128906 57.316406 118.808594 54.542969 118.179688 52.246094 C 117.40625 49.605469 116.125 47.539062 114.332031 46.0625 C 112.539062 44.585938 110.328125 43.839844 107.691406 43.839844 C 105.082031 43.839844 102.894531 44.585938 101.105469 46.0625 C 99.3125 47.539062 98.015625 49.605469 97.253906 52.246094 C 96.621094 54.542969 96.304688 57.316406 96.304688 60.597656 C 96.304688 63.808594 96.621094 66.542969 97.253906 68.789062 C 98.015625 71.539062 99.320312 73.691406 101.152344 75.238281 C 103.011719 76.796875 105.265625 77.566406 107.898438 77.566406 Z M 107.898438 77.566406 " fill-opacity="1" fill-rule="nonzero"/><path fill="#ffffff" d="M 154.960938 90.828125 C 153.871094 90.828125 153.128906 90.285156 152.746094 89.191406 L 134.621094 32.800781 C 134.539062 32.667969 134.515625 32.429688 134.515625 32.113281 C 134.515625 31.621094 134.671875 31.257812 134.984375 31 C 135.300781 30.726562 135.738281 30.578125 136.304688 30.578125 L 150.0625 30.578125 C 151.144531 30.578125 151.878906 31.15625 152.277344 32.320312 L 161.65625 67.523438 C 161.722656 67.8125 161.863281 67.945312 162.078125 67.945312 C 162.320312 67.945312 162.5 67.8125 162.609375 67.523438 L 171.9375 32.320312 C 172.320312 31.15625 173.054688 30.578125 174.152344 30.578125 L 187.960938 30.6875 C 188.652344 30.6875 189.171875 30.925781 189.488281 31.371094 C 189.800781 31.792969 189.832031 32.3125 189.59375 32.90625 L 171.566406 89.191406 C 171.171875 90.285156 170.402344 90.828125 169.246094 90.828125 Z M 154.960938 90.828125 " fill-opacity="1" fill-rule="nonzero"/><path fill="#ffffff" d="M 219.949219 29.738281 C 222.445312 29.738281 224.507812 30.207031 226.167969 31.15625 C 227.078125 31.621094 227.429688 32.453125 227.226562 33.644531 L 225.011719 45.957031 C 224.90625 46.632812 224.664062 47.054688 224.328125 47.226562 C 223.972656 47.375 223.402344 47.375 222.640625 47.226562 C 221.402344 46.914062 220.28125 46.746094 219.265625 46.746094 C 218.703125 46.746094 217.804688 46.832031 216.582031 46.960938 C 213.757812 47.210938 211.371094 48.257812 209.414062 50.085938 C 207.472656 51.917969 206.515625 54.363281 206.515625 57.425781 L 206.515625 88.820312 C 206.515625 90.167969 205.835938 90.828125 204.507812 90.828125 L 192.015625 90.828125 C 190.667969 90.828125 190.015625 90.167969 190.015625 88.820312 L 190.015625 32.585938 C 190.015625 31.257812 190.667969 30.578125 192.015625 30.578125 L 204.507812 30.578125 C 205.835938 30.578125 206.515625 31.257812 206.515625 32.585938 L 206.515625 36.179688 C 206.515625 36.5 206.574219 36.707031 206.722656 36.8125 C 206.894531 36.894531 207.101562 36.804688 207.355469 36.550781 C 210.4375 32.007812 214.640625 29.738281 219.949219 29.738281 Z M 219.949219 29.738281 " fill-opacity="1" fill-rule="nonzero"/><path fill="#ffffff" d="M 261.328125 32.585938 C 261.328125 31.257812 261.972656 30.578125 263.277344 30.578125 L 275.832031 30.578125 C 277.117188 30.578125 277.78125 31.257812 277.78125 32.585938 L 277.78125 88.820312 C 277.78125 90.167969 277.117188 90.828125 275.832031 90.828125 L 263.277344 90.828125 C 261.972656 90.828125 261.328125 90.167969 261.328125 88.820312 L 261.328125 85.652344 C 261.328125 85.371094 261.230469 85.214844 261.015625 85.171875 C 260.835938 85.105469 260.660156 85.195312 260.488281 85.4375 C 257.457031 89.597656 252.660156 91.671875 246.101562 91.671875 C 240.199219 91.671875 235.316406 89.878906 231.503906 86.285156 C 227.664062 82.660156 225.753906 77.597656 225.753906 71.117188 L 225.753906 32.585938 C 225.753906 31.257812 226.414062 30.578125 227.753906 30.578125 L 240.140625 30.578125 C 241.476562 30.578125 242.148438 31.257812 242.148438 32.585938 L 242.148438 67.046875 C 242.148438 70.152344 242.964844 72.6875 244.625 74.660156 C 246.308594 76.601562 248.644531 77.566406 251.636719 77.566406 C 254.269531 77.566406 256.441406 76.773438 258.167969 75.1875 C 259.886719 73.570312 260.933594 71.472656 261.328125 68.894531 Z M 261.328125 32.585938 " fill-opacity="1" fill-rule="nonzero"/><path fill="#ffffff" d="M 280.117188 90.828125 C 278.769531 90.828125 278.117188 90.167969 278.117188 88.820312 L 278.117188 77.242188 C 278.117188 76.292969 278.433594 75.476562 279.058594 74.757812 L 304.996094 46.277344 C 305.171875 46.0625 305.238281 45.890625 305.203125 45.75 C 305.171875 45.574219 304.996094 45.484375 304.683594 45.484375 L 280.800781 45.484375 C 279.496094 45.484375 278.851562 44.824219 278.851562 43.476562 L 278.851562 32.585938 C 278.851562 31.257812 279.496094 30.578125 280.800781 30.578125 L 323.386719 30.578125 C 324.683594 30.578125 325.34375 31.257812 325.34375 32.585938 L 325.34375 44.054688 C 325.34375 45.003906 325.039062 45.839844 324.445312 46.542969 L 297.671875 75.023438 C 297.484375 75.238281 297.417969 75.4375 297.457031 75.609375 C 297.484375 75.75 297.671875 75.816406 297.984375 75.816406 L 323.972656 75.816406 C 325.261719 75.816406 325.921875 76.492188 325.921875 77.832031 L 325.921875 88.820312 C 325.921875 90.167969 325.261719 90.828125 323.972656 90.828125 Z M 280.117188 90.828125 " fill-opacity="1" fill-rule="nonzero"/><path fill="#ffffff" d="M 134.523438 98.234375 C 134.523438 96.90625 135.183594 96.230469 136.519531 96.230469 L 149.015625 96.230469 C 150.34375 96.230469 151.023438 96.90625 151.023438 98.234375 L 151.023438 176.296875 C 151.023438 177.644531 150.34375 178.304688 149.015625 178.304688 L 136.519531 178.304688 C 135.183594 178.304688 134.523438 177.644531 134.523438 176.296875 L 134.523438 173.125 C 134.523438 172.84375 134.414062 172.6875 134.210938 172.648438 C 134.019531 172.582031 133.847656 172.679688 133.679688 172.910156 C 130.476562 177.140625 126.050781 179.253906 120.394531 179.253906 C 115.085938 179.253906 110.386719 177.667969 106.273438 174.496094 C 102.183594 171.324219 99.371094 167.179688 97.785156 162.027344 C 96.480469 158.261719 95.835938 153.570312 95.835938 147.972656 C 95.835938 142.160156 96.570312 137.320312 98.046875 133.4375 C 99.757812 128.441406 102.589844 124.453125 106.539062 121.488281 C 110.460938 118.507812 115.085938 116.996094 120.394531 116.996094 C 126.15625 116.996094 130.582031 118.929688 133.679688 122.761719 C 133.847656 122.96875 134.019531 123.050781 134.210938 122.96875 C 134.414062 122.902344 134.523438 122.703125 134.523438 122.390625 Z M 132.046875 159.804688 C 133.621094 156.890625 134.414062 153.019531 134.414062 148.179688 C 134.414062 143.042969 133.589844 139.019531 131.9375 136.128906 C 130.007812 133.066406 127.40625 131.53125 124.132812 131.53125 C 120.519531 131.53125 117.777344 133.007812 115.917969 135.972656 C 114.042969 139.121094 113.117188 143.214844 113.117188 148.285156 C 113.117188 152.910156 113.9375 156.742188 115.597656 159.804688 C 117.453125 163.167969 120.304688 164.828125 124.132812 164.828125 C 127.535156 164.828125 130.171875 163.167969 132.046875 159.804688 Z M 132.046875 159.804688 " fill-opacity="1" fill-rule="nonzero"/><path fill="#ffffff" d="M 156.449219 178.304688 C 155.144531 178.304688 154.5 177.644531 154.5 176.296875 L 154.5 120.0625 C 154.5 118.730469 155.144531 118.054688 156.449219 118.054688 L 168.992188 118.054688 C 170.277344 118.054688 170.941406 118.730469 170.941406 120.0625 L 170.941406 176.296875 C 170.941406 177.644531 170.277344 178.304688 168.992188 178.304688 Z M 162.292969 110.8125 C 160.039062 110.8125 158.214844 110.117188 156.820312 108.699219 C 155.40625 107.300781 154.703125 105.460938 154.703125 103.207031 C 154.703125 100.917969 155.40625 99.070312 156.820312 97.65625 C 158.214844 96.253906 160.039062 95.542969 162.292969 95.542969 C 164.539062 95.542969 166.355469 96.253906 167.726562 97.65625 C 169.097656 99.070312 169.785156 100.917969 169.785156 103.207031 C 169.785156 105.460938 169.097656 107.300781 167.726562 108.699219 C 166.355469 110.117188 164.539062 110.8125 162.292969 110.8125 Z M 162.292969 110.8125 " fill-opacity="1" fill-rule="nonzero"/><g clip-path="url(#7fb70e2974)"><path fill="#ffffff" d="M 211.171875 120.0625 C 211.171875 118.730469 211.816406 118.054688 213.121094 118.054688 L 225.664062 118.054688 C 227.003906 118.054688 227.671875 118.730469 227.671875 120.0625 L 227.671875 172.910156 C 227.671875 183.167969 224.730469 190.476562 218.867188 194.84375 C 213.03125 199.203125 205.507812 201.398438 196.308594 201.398438 C 193.738281 201.398438 190.824219 201.203125 187.5625 200.824219 C 186.355469 200.738281 185.769531 200.039062 185.769531 198.707031 L 186.242188 187.816406 C 186.242188 187.179688 186.457031 186.683594 186.878906 186.339844 C 187.324219 185.984375 187.851562 185.875 188.453125 186.023438 C 191.371094 186.402344 193.757812 186.601562 195.621094 186.601562 C 200.601562 186.601562 204.441406 185.503906 207.117188 183.324219 C 209.816406 181.136719 211.171875 177.644531 211.171875 172.8125 C 211.171875 172.574219 211.082031 172.421875 210.90625 172.382812 C 210.765625 172.359375 210.570312 172.464844 210.328125 172.703125 C 207.4375 175.808594 203.160156 177.355469 197.472656 177.355469 C 192.410156 177.355469 187.746094 176.140625 183.5 173.703125 C 179.246094 171.25 176.226562 167.261719 174.433594 161.761719 C 173.277344 158.171875 172.699219 153.523438 172.699219 147.808594 C 172.699219 141.722656 173.390625 136.765625 174.804688 132.960938 C 176.449219 128.179688 179.207031 124.332031 183.078125 121.441406 C 186.976562 118.558594 191.511719 117.105469 196.679688 117.105469 C 202.5 117.105469 207.058594 118.871094 210.328125 122.390625 C 210.570312 122.636719 210.765625 122.738281 210.90625 122.652344 C 211.082031 122.546875 211.171875 122.339844 211.171875 122.019531 Z M 210.222656 157.320312 C 210.859375 154.976562 211.171875 151.761719 211.171875 147.707031 C 211.171875 145.273438 211.082031 143.414062 210.90625 142.101562 C 210.765625 140.769531 210.503906 139.515625 210.113281 138.351562 C 209.40625 136.238281 208.230469 134.546875 206.589844 133.273438 C 204.960938 131.984375 202.945312 131.324219 200.527344 131.324219 C 198.164062 131.324219 196.167969 131.984375 194.515625 133.273438 C 192.898438 134.546875 191.699219 136.238281 190.933594 138.351562 C 189.84375 140.671875 189.296875 143.835938 189.296875 147.808594 C 189.296875 152.226562 189.777344 155.355469 190.726562 157.222656 C 191.417969 159.335938 192.632812 161.050781 194.359375 162.339844 C 196.109375 163.613281 198.207031 164.25 200.636719 164.25 C 203.121094 164.25 205.175781 163.613281 206.796875 162.339844 C 208.445312 161.050781 209.59375 159.367188 210.222656 157.320312 Z M 210.222656 157.320312 " fill-opacity="1" fill-rule="nonzero"/></g><path fill="#ffffff" d="M 232.511719 178.304688 C 231.207031 178.304688 230.5625 177.644531 230.5625 176.296875 L 230.5625 120.0625 C 230.5625 118.730469 231.207031 118.054688 232.511719 118.054688 L 245.054688 118.054688 C 246.34375 118.054688 247.003906 118.730469 247.003906 120.0625 L 247.003906 176.296875 C 247.003906 177.644531 246.34375 178.304688 245.054688 178.304688 Z M 238.355469 110.8125 C 236.101562 110.8125 234.277344 110.117188 232.875 108.699219 C 231.46875 107.300781 230.769531 105.460938 230.769531 103.207031 C 230.769531 100.917969 231.46875 99.070312 232.875 97.65625 C 234.277344 96.253906 236.101562 95.542969 238.355469 95.542969 C 240.59375 95.542969 242.417969 96.253906 243.789062 97.65625 C 245.160156 99.070312 245.847656 100.917969 245.847656 103.207031 C 245.847656 105.460938 245.160156 107.300781 243.789062 108.699219 C 242.417969 110.117188 240.59375 110.8125 238.355469 110.8125 Z M 238.355469 110.8125 " fill-opacity="1" fill-rule="nonzero"/><path fill="#ffffff" d="M 285.023438 129.308594 C 285.023438 130.664062 284.34375 131.324219 283.015625 131.324219 L 272.476562 131.324219 C 272.015625 131.324219 271.792969 131.554688 271.792969 132.011719 L 271.792969 156.261719 C 271.792969 158.839844 272.320312 160.746094 273.371094 161.976562 C 274.425781 163.175781 276.113281 163.769531 278.433594 163.769531 L 281.75 163.769531 C 283.039062 163.769531 283.699219 164.445312 283.699219 165.777344 L 283.699219 175.816406 C 283.699219 177.089844 283.039062 177.800781 281.75 177.929688 C 278.761719 178.121094 276.613281 178.195312 275.320312 178.195312 C 268.8125 178.195312 263.964844 177.113281 260.777344 174.925781 C 257.613281 172.746094 255.980469 168.675781 255.871094 162.710938 L 255.871094 132.011719 C 255.871094 131.554688 255.632812 131.324219 255.1875 131.324219 L 249.230469 131.324219 C 247.886719 131.324219 247.226562 130.664062 247.226562 129.308594 L 247.226562 120.0625 C 247.226562 118.730469 247.886719 118.054688 249.230469 118.054688 L 255.1875 118.054688 C 255.632812 118.054688 255.871094 117.832031 255.871094 117.367188 L 255.871094 104.105469 C 255.871094 102.769531 256.53125 102.09375 257.878906 102.09375 L 269.785156 102.09375 C 271.117188 102.09375 271.792969 102.769531 271.792969 104.105469 L 271.792969 117.367188 C 271.792969 117.832031 272.015625 118.054688 272.476562 118.054688 L 283.015625 118.054688 C 284.34375 118.054688 285.023438 118.730469 285.023438 120.0625 Z M 285.023438 129.308594 " fill-opacity="1" fill-rule="nonzero"/><path fill="#ffffff" d="M 310.457031 117.105469 C 315.507812 117.105469 320.019531 117.988281 324 119.746094 C 328.003906 121.515625 331.117188 123.925781 333.328125 126.988281 C 335.542969 130.027344 336.648438 133.40625 336.648438 137.136719 L 336.648438 176.296875 C 336.648438 177.644531 335.980469 178.304688 334.644531 178.304688 L 322.15625 178.304688 C 320.8125 178.304688 320.148438 177.644531 320.148438 176.296875 L 320.148438 173.496094 C 320.148438 173.175781 320.058594 173.011719 319.886719 172.96875 C 319.746094 172.945312 319.570312 173.042969 319.359375 173.28125 C 315.773438 177.269531 310.421875 179.253906 303.335938 179.253906 C 297.324219 179.253906 292.496094 177.773438 288.84375 174.820312 C 285.179688 171.828125 283.363281 167.445312 283.363281 161.65625 C 283.363281 155.636719 285.441406 150.96875 289.628906 147.648438 C 293.847656 144.347656 299.859375 142.6875 307.65625 142.6875 L 319.464844 142.6875 C 319.910156 142.6875 320.148438 142.449219 320.148438 141.945312 L 320.148438 139.515625 C 320.148438 136.949219 319.332031 134.941406 317.722656 133.488281 C 316.144531 132.050781 313.839844 131.324219 310.820312 131.324219 C 308.464844 131.324219 306.523438 131.722656 305.023438 132.480469 C 303.511719 133.265625 302.46875 134.363281 301.917969 135.757812 C 301.453125 136.855469 300.679688 137.371094 299.597656 137.296875 L 286.632812 135.652344 C 285.996094 135.550781 285.492188 135.378906 285.152344 135.125 C 284.796875 134.851562 284.648438 134.480469 284.734375 134.015625 C 285.113281 130.820312 286.441406 127.921875 288.738281 125.347656 C 291.058594 122.746094 294.089844 120.722656 297.855469 119.269531 C 301.652344 117.832031 305.839844 117.105469 310.457031 117.105469 Z M 308.136719 166.941406 C 311.464844 166.941406 314.304688 166.039062 316.617188 164.25 C 318.960938 162.449219 320.148438 160.152344 320.148438 157.320312 L 320.148438 153.199219 C 320.148438 152.753906 319.910156 152.515625 319.464844 152.515625 L 311.191406 152.515625 C 307.671875 152.515625 304.890625 153.191406 302.867188 154.519531 C 300.820312 155.832031 299.804688 157.691406 299.804688 160.128906 C 299.804688 162.242188 300.554688 163.917969 302.074219 165.148438 C 303.609375 166.347656 305.632812 166.941406 308.136719 166.941406 Z M 308.136719 166.941406 " fill-opacity="1" fill-rule="nonzero"/><path fill="#ffffff" d="M 341.746094 178.304688 C 340.441406 178.304688 339.796875 177.644531 339.796875 176.296875 L 339.796875 98.234375 C 339.796875 96.90625 340.441406 96.230469 341.746094 96.230469 L 354.289062 96.230469 C 355.617188 96.230469 356.285156 96.90625 356.285156 98.234375 L 356.285156 176.296875 C 356.285156 177.644531 355.617188 178.304688 354.289062 178.304688 Z M 341.746094 178.304688 " fill-opacity="1" fill-rule="nonzero"/></svg>
