<svg xmlns="http://www.w3.org/2000/svg" xmlns:xlink="http://www.w3.org/1999/xlink" width="120" zoomAndPan="magnify" viewBox="0 0 90 30.000001" height="40" preserveAspectRatio="xMidYMid meet" version="1.0"><defs><g/></defs><g fill="#313f51" fill-opacity="1"><g transform="translate(13.324191, 13.036171)"><g><path d="M 1.3125 0 C 1.125 0 1.03125 -0.09375 1.03125 -0.28125 L 1.03125 -11.484375 C 1.03125 -11.671875 1.125 -11.765625 1.3125 -11.765625 L 3.046875 -11.765625 C 3.191406 -11.765625 3.300781 -11.703125 3.375 -11.578125 L 7.578125 -4.59375 C 7.597656 -4.539062 7.625 -4.519531 7.65625 -4.53125 C 7.6875 -4.550781 7.703125 -4.582031 7.703125 -4.625 L 7.703125 -11.484375 C 7.703125 -11.671875 7.796875 -11.765625 7.984375 -11.765625 L 9.75 -11.765625 C 9.9375 -11.765625 10.03125 -11.671875 10.03125 -11.484375 L 10.03125 -0.28125 C 10.03125 -0.09375 9.9375 0 9.75 0 L 8.03125 0 C 7.894531 0 7.785156 -0.0664062 7.703125 -0.203125 L 3.484375 -7.265625 C 3.460938 -7.304688 3.4375 -7.320312 3.40625 -7.3125 C 3.375 -7.300781 3.359375 -7.273438 3.359375 -7.234375 L 3.375 -0.28125 C 3.375 -0.09375 3.28125 0 3.09375 0 Z M 1.3125 0 "/></g></g></g><g fill="#313f51" fill-opacity="1"><g transform="translate(23.15529, 13.036171)"><g><path d="M 4.703125 0.140625 C 3.753906 0.140625 2.941406 -0.101562 2.265625 -0.59375 C 1.597656 -1.09375 1.140625 -1.769531 0.890625 -2.625 C 0.734375 -3.144531 0.65625 -3.71875 0.65625 -4.34375 C 0.65625 -5.019531 0.738281 -5.613281 0.90625 -6.125 C 1.164062 -6.945312 1.628906 -7.59375 2.296875 -8.0625 C 2.960938 -8.539062 3.769531 -8.78125 4.71875 -8.78125 C 5.644531 -8.78125 6.429688 -8.539062 7.078125 -8.0625 C 7.734375 -7.59375 8.191406 -6.953125 8.453125 -6.140625 C 8.617188 -5.617188 8.703125 -5.03125 8.703125 -4.375 C 8.703125 -3.789062 8.628906 -3.222656 8.484375 -2.671875 C 8.234375 -1.796875 7.773438 -1.109375 7.109375 -0.609375 C 6.441406 -0.109375 5.640625 0.140625 4.703125 0.140625 Z M 4.703125 -1.90625 C 5.066406 -1.90625 5.375 -2.015625 5.625 -2.234375 C 5.882812 -2.460938 6.070312 -2.769531 6.1875 -3.15625 C 6.28125 -3.457031 6.328125 -3.851562 6.328125 -4.34375 C 6.328125 -4.8125 6.28125 -5.207031 6.1875 -5.53125 C 6.070312 -5.914062 5.882812 -6.210938 5.625 -6.421875 C 5.375 -6.628906 5.054688 -6.734375 4.671875 -6.734375 C 4.304688 -6.734375 3.992188 -6.628906 3.734375 -6.421875 C 3.472656 -6.210938 3.285156 -5.914062 3.171875 -5.53125 C 3.085938 -5.207031 3.046875 -4.8125 3.046875 -4.34375 C 3.046875 -3.875 3.085938 -3.476562 3.171875 -3.15625 C 3.285156 -2.769531 3.472656 -2.460938 3.734375 -2.234375 C 4.003906 -2.015625 4.328125 -1.90625 4.703125 -1.90625 Z M 4.703125 -1.90625 "/></g></g></g><g fill="#313f51" fill-opacity="1"><g transform="translate(31.288867, 13.036171)"><g><path d="M 3.34375 0 C 3.1875 0 3.082031 -0.078125 3.03125 -0.234375 L 0.421875 -8.328125 C 0.410156 -8.347656 0.40625 -8.378906 0.40625 -8.421875 C 0.40625 -8.492188 0.425781 -8.546875 0.46875 -8.578125 C 0.507812 -8.617188 0.570312 -8.640625 0.65625 -8.640625 L 2.640625 -8.640625 C 2.796875 -8.640625 2.898438 -8.554688 2.953125 -8.390625 L 4.296875 -3.34375 C 4.316406 -3.300781 4.34375 -3.28125 4.375 -3.28125 C 4.40625 -3.28125 4.425781 -3.300781 4.4375 -3.34375 L 5.78125 -8.390625 C 5.84375 -8.554688 5.953125 -8.640625 6.109375 -8.640625 L 8.09375 -8.625 C 8.1875 -8.625 8.253906 -8.59375 8.296875 -8.53125 C 8.347656 -8.46875 8.359375 -8.394531 8.328125 -8.3125 L 5.734375 -0.234375 C 5.679688 -0.078125 5.566406 0 5.390625 0 Z M 3.34375 0 "/></g></g></g><g fill="#313f51" fill-opacity="1"><g transform="translate(38.800582, 13.036171)"><g><path d="M 5.171875 -8.765625 C 5.535156 -8.765625 5.832031 -8.695312 6.0625 -8.5625 C 6.195312 -8.488281 6.25 -8.367188 6.21875 -8.203125 L 5.90625 -6.4375 C 5.894531 -6.332031 5.863281 -6.269531 5.8125 -6.25 C 5.757812 -6.226562 5.675781 -6.226562 5.5625 -6.25 C 5.382812 -6.300781 5.222656 -6.328125 5.078125 -6.328125 C 4.992188 -6.328125 4.863281 -6.3125 4.6875 -6.28125 C 4.28125 -6.25 3.9375 -6.101562 3.65625 -5.84375 C 3.382812 -5.582031 3.25 -5.234375 3.25 -4.796875 L 3.25 -0.28125 C 3.25 -0.09375 3.148438 0 2.953125 0 L 1.15625 0 C 0.96875 0 0.875 -0.09375 0.875 -0.28125 L 0.875 -8.359375 C 0.875 -8.546875 0.96875 -8.640625 1.15625 -8.640625 L 2.953125 -8.640625 C 3.148438 -8.640625 3.25 -8.546875 3.25 -8.359375 L 3.25 -7.828125 C 3.25 -7.785156 3.257812 -7.757812 3.28125 -7.75 C 3.300781 -7.738281 3.328125 -7.75 3.359375 -7.78125 C 3.804688 -8.4375 4.410156 -8.765625 5.171875 -8.765625 Z M 5.171875 -8.765625 "/></g></g></g><g fill="#313f51" fill-opacity="1"><g transform="translate(44.009705, 13.036171)"><g><path d="M 5.921875 -8.359375 C 5.921875 -8.546875 6.015625 -8.640625 6.203125 -8.640625 L 8 -8.640625 C 8.1875 -8.640625 8.28125 -8.546875 8.28125 -8.359375 L 8.28125 -0.28125 C 8.28125 -0.09375 8.1875 0 8 0 L 6.203125 0 C 6.015625 0 5.921875 -0.09375 5.921875 -0.28125 L 5.921875 -0.734375 C 5.921875 -0.785156 5.90625 -0.8125 5.875 -0.8125 C 5.84375 -0.820312 5.816406 -0.804688 5.796875 -0.765625 C 5.359375 -0.171875 4.671875 0.125 3.734375 0.125 C 2.878906 0.125 2.175781 -0.128906 1.625 -0.640625 C 1.082031 -1.160156 0.8125 -1.890625 0.8125 -2.828125 L 0.8125 -8.359375 C 0.8125 -8.546875 0.90625 -8.640625 1.09375 -8.640625 L 2.875 -8.640625 C 3.0625 -8.640625 3.15625 -8.546875 3.15625 -8.359375 L 3.15625 -3.40625 C 3.15625 -2.957031 3.273438 -2.59375 3.515625 -2.3125 C 3.765625 -2.039062 4.097656 -1.90625 4.515625 -1.90625 C 4.898438 -1.90625 5.210938 -2.019531 5.453125 -2.25 C 5.703125 -2.476562 5.859375 -2.773438 5.921875 -3.140625 Z M 5.921875 -8.359375 "/></g></g></g><g fill="#313f51" fill-opacity="1"><g transform="translate(51.941604, 13.036171)"><g><path d="M 0.6875 0 C 0.5 0 0.40625 -0.09375 0.40625 -0.28125 L 0.40625 -1.953125 C 0.40625 -2.085938 0.445312 -2.203125 0.53125 -2.296875 L 4.265625 -6.390625 C 4.285156 -6.421875 4.289062 -6.445312 4.28125 -6.46875 C 4.28125 -6.488281 4.257812 -6.5 4.21875 -6.5 L 0.796875 -6.5 C 0.597656 -6.5 0.5 -6.597656 0.5 -6.796875 L 0.5 -8.359375 C 0.5 -8.546875 0.597656 -8.640625 0.796875 -8.640625 L 6.90625 -8.640625 C 7.101562 -8.640625 7.203125 -8.546875 7.203125 -8.359375 L 7.203125 -6.703125 C 7.203125 -6.566406 7.15625 -6.453125 7.0625 -6.359375 L 3.21875 -2.265625 C 3.1875 -2.234375 3.171875 -2.207031 3.171875 -2.1875 C 3.179688 -2.164062 3.210938 -2.15625 3.265625 -2.15625 L 7 -2.15625 C 7.1875 -2.15625 7.28125 -2.054688 7.28125 -1.859375 L 7.28125 -0.28125 C 7.28125 -0.09375 7.1875 0 7 0 Z M 0.6875 0 "/></g></g></g><g fill="#313f51" fill-opacity="1"><g transform="translate(8.529744, 25.583718)"><g/></g></g><g fill="#313f51" fill-opacity="1"><g transform="translate(10.663162, 25.583718)"><g/></g></g><g fill="#313f51" fill-opacity="1"><g transform="translate(12.79658, 25.583718)"><g/></g></g><g fill="#313f51" fill-opacity="1"><g transform="translate(14.929997, 25.583718)"><g/></g></g><g fill="#313f51" fill-opacity="1"><g transform="translate(17.063415, 25.583718)"><g/></g></g><g fill="#313f51" fill-opacity="1"><g transform="translate(19.196833, 25.583718)"><g/></g></g><g fill="#313f51" fill-opacity="1"><g transform="translate(21.330251, 25.583718)"><g/></g></g><g fill="#313f51" fill-opacity="1"><g transform="translate(23.463668, 25.583718)"><g/></g></g><g fill="#313f51" fill-opacity="1"><g transform="translate(25.604389, 25.583718)"><g><path d="M 6.09375 -11.484375 C 6.09375 -11.671875 6.1875 -11.765625 6.375 -11.765625 L 8.171875 -11.765625 C 8.359375 -11.765625 8.453125 -11.671875 8.453125 -11.484375 L 8.453125 -0.28125 C 8.453125 -0.09375 8.359375 0 8.171875 0 L 6.375 0 C 6.1875 0 6.09375 -0.09375 6.09375 -0.28125 L 6.09375 -0.734375 C 6.09375 -0.785156 6.078125 -0.8125 6.046875 -0.8125 C 6.015625 -0.820312 5.988281 -0.804688 5.96875 -0.765625 C 5.507812 -0.160156 4.867188 0.140625 4.046875 0.140625 C 3.285156 0.140625 2.609375 -0.0859375 2.015625 -0.546875 C 1.429688 -1.003906 1.03125 -1.601562 0.8125 -2.34375 C 0.613281 -2.875 0.515625 -3.546875 0.515625 -4.359375 C 0.515625 -5.179688 0.625 -5.875 0.84375 -6.4375 C 1.082031 -7.15625 1.484375 -7.726562 2.046875 -8.15625 C 2.617188 -8.582031 3.285156 -8.796875 4.046875 -8.796875 C 4.878906 -8.796875 5.519531 -8.519531 5.96875 -7.96875 C 5.988281 -7.9375 6.015625 -7.925781 6.046875 -7.9375 C 6.078125 -7.945312 6.09375 -7.972656 6.09375 -8.015625 Z M 5.734375 -2.65625 C 5.953125 -3.070312 6.0625 -3.628906 6.0625 -4.328125 C 6.0625 -5.066406 5.945312 -5.640625 5.71875 -6.046875 C 5.4375 -6.484375 5.0625 -6.703125 4.59375 -6.703125 C 4.070312 -6.703125 3.675781 -6.488281 3.40625 -6.0625 C 3.144531 -5.613281 3.015625 -5.023438 3.015625 -4.296875 C 3.015625 -3.640625 3.128906 -3.09375 3.359375 -2.65625 C 3.628906 -2.175781 4.039062 -1.9375 4.59375 -1.9375 C 5.082031 -1.9375 5.460938 -2.175781 5.734375 -2.65625 Z M 5.734375 -2.65625 "/></g></g></g><g fill="#313f51" fill-opacity="1"><g transform="translate(33.737966, 25.583718)"><g><path d="M 1.109375 0 C 0.921875 0 0.828125 -0.09375 0.828125 -0.28125 L 0.828125 -8.359375 C 0.828125 -8.546875 0.921875 -8.640625 1.109375 -8.640625 L 2.90625 -8.640625 C 3.09375 -8.640625 3.1875 -8.546875 3.1875 -8.359375 L 3.1875 -0.28125 C 3.1875 -0.09375 3.09375 0 2.90625 0 Z M 1.953125 -9.6875 C 1.628906 -9.6875 1.363281 -9.785156 1.15625 -9.984375 C 0.957031 -10.191406 0.859375 -10.457031 0.859375 -10.78125 C 0.859375 -11.101562 0.957031 -11.363281 1.15625 -11.5625 C 1.363281 -11.769531 1.628906 -11.875 1.953125 -11.875 C 2.273438 -11.875 2.535156 -11.769531 2.734375 -11.5625 C 2.929688 -11.363281 3.03125 -11.101562 3.03125 -10.78125 C 3.03125 -10.457031 2.929688 -10.191406 2.734375 -9.984375 C 2.535156 -9.785156 2.273438 -9.6875 1.953125 -9.6875 Z M 1.953125 -9.6875 "/></g></g></g><g fill="#313f51" fill-opacity="1"><g transform="translate(36.560485, 25.583718)"><g><path d="M 6.15625 -8.359375 C 6.15625 -8.546875 6.25 -8.640625 6.4375 -8.640625 L 8.234375 -8.640625 C 8.429688 -8.640625 8.53125 -8.546875 8.53125 -8.359375 L 8.53125 -0.765625 C 8.53125 0.691406 8.109375 1.734375 7.265625 2.359375 C 6.421875 2.992188 5.335938 3.3125 4.015625 3.3125 C 3.648438 3.3125 3.226562 3.285156 2.75 3.234375 C 2.582031 3.222656 2.5 3.117188 2.5 2.921875 L 2.578125 1.359375 C 2.578125 1.273438 2.601562 1.207031 2.65625 1.15625 C 2.71875 1.101562 2.796875 1.085938 2.890625 1.109375 C 3.304688 1.160156 3.648438 1.1875 3.921875 1.1875 C 4.640625 1.1875 5.191406 1.03125 5.578125 0.71875 C 5.960938 0.40625 6.15625 -0.0976562 6.15625 -0.796875 C 6.15625 -0.828125 6.144531 -0.84375 6.125 -0.84375 C 6.101562 -0.851562 6.070312 -0.84375 6.03125 -0.8125 C 5.613281 -0.363281 5 -0.140625 4.1875 -0.140625 C 3.457031 -0.140625 2.785156 -0.3125 2.171875 -0.65625 C 1.566406 -1.007812 1.132812 -1.582031 0.875 -2.375 C 0.707031 -2.882812 0.625 -3.550781 0.625 -4.375 C 0.625 -5.25 0.722656 -5.957031 0.921875 -6.5 C 1.160156 -7.1875 1.554688 -7.738281 2.109375 -8.15625 C 2.671875 -8.570312 3.320312 -8.78125 4.0625 -8.78125 C 4.90625 -8.78125 5.5625 -8.523438 6.03125 -8.015625 C 6.070312 -7.984375 6.101562 -7.972656 6.125 -7.984375 C 6.144531 -7.992188 6.15625 -8.019531 6.15625 -8.0625 Z M 6.015625 -3.015625 C 6.109375 -3.347656 6.15625 -3.804688 6.15625 -4.390625 C 6.15625 -4.734375 6.144531 -5 6.125 -5.1875 C 6.101562 -5.382812 6.0625 -5.566406 6 -5.734375 C 5.894531 -6.035156 5.722656 -6.273438 5.484375 -6.453125 C 5.253906 -6.640625 4.96875 -6.734375 4.625 -6.734375 C 4.289062 -6.734375 4.003906 -6.640625 3.765625 -6.453125 C 3.523438 -6.273438 3.351562 -6.035156 3.25 -5.734375 C 3.09375 -5.398438 3.015625 -4.945312 3.015625 -4.375 C 3.015625 -3.75 3.082031 -3.300781 3.21875 -3.03125 C 3.3125 -2.726562 3.484375 -2.484375 3.734375 -2.296875 C 3.992188 -2.109375 4.296875 -2.015625 4.640625 -2.015625 C 4.992188 -2.015625 5.289062 -2.109375 5.53125 -2.296875 C 5.769531 -2.484375 5.929688 -2.722656 6.015625 -3.015625 Z M 6.015625 -3.015625 "/></g></g></g><g fill="#313f51" fill-opacity="1"><g transform="translate(44.677266, 25.583718)"><g><path d="M 1.109375 0 C 0.921875 0 0.828125 -0.09375 0.828125 -0.28125 L 0.828125 -8.359375 C 0.828125 -8.546875 0.921875 -8.640625 1.109375 -8.640625 L 2.90625 -8.640625 C 3.09375 -8.640625 3.1875 -8.546875 3.1875 -8.359375 L 3.1875 -0.28125 C 3.1875 -0.09375 3.09375 0 2.90625 0 Z M 1.953125 -9.6875 C 1.628906 -9.6875 1.363281 -9.785156 1.15625 -9.984375 C 0.957031 -10.191406 0.859375 -10.457031 0.859375 -10.78125 C 0.859375 -11.101562 0.957031 -11.363281 1.15625 -11.5625 C 1.363281 -11.769531 1.628906 -11.875 1.953125 -11.875 C 2.273438 -11.875 2.535156 -11.769531 2.734375 -11.5625 C 2.929688 -11.363281 3.03125 -11.101562 3.03125 -10.78125 C 3.03125 -10.457031 2.929688 -10.191406 2.734375 -9.984375 C 2.535156 -9.785156 2.273438 -9.6875 1.953125 -9.6875 Z M 1.953125 -9.6875 "/></g></g></g><g fill="#313f51" fill-opacity="1"><g transform="translate(47.499784, 25.583718)"><g><path d="M 5.828125 -7.03125 C 5.828125 -6.832031 5.734375 -6.734375 5.546875 -6.734375 L 4.03125 -6.734375 C 3.96875 -6.734375 3.9375 -6.703125 3.9375 -6.640625 L 3.9375 -3.15625 C 3.9375 -2.789062 4.007812 -2.519531 4.15625 -2.34375 C 4.3125 -2.164062 4.554688 -2.078125 4.890625 -2.078125 L 5.359375 -2.078125 C 5.554688 -2.078125 5.65625 -1.984375 5.65625 -1.796875 L 5.65625 -0.359375 C 5.65625 -0.171875 5.554688 -0.0664062 5.359375 -0.046875 C 4.929688 -0.0234375 4.625 -0.015625 4.4375 -0.015625 C 3.507812 -0.015625 2.816406 -0.171875 2.359375 -0.484375 C 1.898438 -0.796875 1.660156 -1.378906 1.640625 -2.234375 L 1.640625 -6.640625 C 1.640625 -6.703125 1.609375 -6.734375 1.546875 -6.734375 L 0.6875 -6.734375 C 0.5 -6.734375 0.40625 -6.832031 0.40625 -7.03125 L 0.40625 -8.359375 C 0.40625 -8.546875 0.5 -8.640625 0.6875 -8.640625 L 1.546875 -8.640625 C 1.609375 -8.640625 1.640625 -8.675781 1.640625 -8.75 L 1.640625 -10.640625 C 1.640625 -10.828125 1.738281 -10.921875 1.9375 -10.921875 L 3.640625 -10.921875 C 3.835938 -10.921875 3.9375 -10.828125 3.9375 -10.640625 L 3.9375 -8.75 C 3.9375 -8.675781 3.96875 -8.640625 4.03125 -8.640625 L 5.546875 -8.640625 C 5.734375 -8.640625 5.828125 -8.546875 5.828125 -8.359375 Z M 5.828125 -7.03125 "/></g></g></g><g fill="#313f51" fill-opacity="1"><g transform="translate(52.658501, 25.583718)"><g><path d="M 4.34375 -8.78125 C 5.070312 -8.78125 5.71875 -8.648438 6.28125 -8.390625 C 6.851562 -8.140625 7.300781 -7.796875 7.625 -7.359375 C 7.945312 -6.921875 8.109375 -6.4375 8.109375 -5.90625 L 8.109375 -0.28125 C 8.109375 -0.09375 8.007812 0 7.8125 0 L 6.015625 0 C 5.828125 0 5.734375 -0.09375 5.734375 -0.28125 L 5.734375 -0.6875 C 5.734375 -0.726562 5.722656 -0.75 5.703125 -0.75 C 5.679688 -0.757812 5.648438 -0.75 5.609375 -0.71875 C 5.097656 -0.144531 4.332031 0.140625 3.3125 0.140625 C 2.445312 0.140625 1.75 -0.0703125 1.21875 -0.5 C 0.695312 -0.925781 0.4375 -1.554688 0.4375 -2.390625 C 0.4375 -3.253906 0.738281 -3.921875 1.34375 -4.390625 C 1.945312 -4.867188 2.8125 -5.109375 3.9375 -5.109375 L 5.625 -5.109375 C 5.695312 -5.109375 5.734375 -5.144531 5.734375 -5.21875 L 5.734375 -5.5625 C 5.734375 -5.9375 5.617188 -6.222656 5.390625 -6.421875 C 5.160156 -6.628906 4.828125 -6.734375 4.390625 -6.734375 C 4.054688 -6.734375 3.78125 -6.675781 3.5625 -6.5625 C 3.34375 -6.457031 3.191406 -6.304688 3.109375 -6.109375 C 3.046875 -5.953125 2.9375 -5.878906 2.78125 -5.890625 L 0.90625 -6.125 C 0.8125 -6.132812 0.738281 -6.15625 0.6875 -6.1875 C 0.644531 -6.226562 0.628906 -6.285156 0.640625 -6.359375 C 0.691406 -6.816406 0.882812 -7.226562 1.21875 -7.59375 C 1.550781 -7.96875 1.988281 -8.257812 2.53125 -8.46875 C 3.070312 -8.675781 3.675781 -8.78125 4.34375 -8.78125 Z M 4 -1.625 C 4.476562 -1.625 4.882812 -1.753906 5.21875 -2.015625 C 5.5625 -2.273438 5.734375 -2.609375 5.734375 -3.015625 L 5.734375 -3.59375 C 5.734375 -3.664062 5.695312 -3.703125 5.625 -3.703125 L 4.4375 -3.703125 C 3.9375 -3.703125 3.539062 -3.601562 3.25 -3.40625 C 2.957031 -3.21875 2.8125 -2.953125 2.8125 -2.609375 C 2.8125 -2.304688 2.921875 -2.066406 3.140625 -1.890625 C 3.359375 -1.710938 3.644531 -1.625 4 -1.625 Z M 4 -1.625 "/></g></g></g><g fill="#313f51" fill-opacity="1"><g transform="translate(60.304671, 25.583718)"><g><path d="M 1.1875 0 C 1 0 0.90625 -0.09375 0.90625 -0.28125 L 0.90625 -11.484375 C 0.90625 -11.671875 1 -11.765625 1.1875 -11.765625 L 3 -11.765625 C 3.1875 -11.765625 3.28125 -11.671875 3.28125 -11.484375 L 3.28125 -0.28125 C 3.28125 -0.09375 3.1875 0 3 0 Z M 1.1875 0 "/></g></g></g></svg>